<svg width="18" height="18" viewBox="0 0 18 18" fill="none" xmlns="http://www.w3.org/2000/svg">
<path fill-rule="evenodd" clip-rule="evenodd" d="M2.625 9C2.625 7.30925 3.29665 5.68774 4.49219 4.49219C5.68774 3.29665 7.30925 2.625 9 2.625C10.6908 2.625 12.3123 3.29665 13.5078 4.4922C14.7034 5.68774 15.375 7.30925 15.375 9C15.375 10.6908 14.7034 12.3123 13.5078 13.5078C12.3123 14.7034 10.6908 15.375 9 15.375C7.30924 15.375 5.68774 14.7034 4.49219 13.5078C3.29665 12.3123 2.625 10.6908 2.625 9ZM9.5625 5.25C9.5625 5.10082 9.50324 4.95774 9.39775 4.85225C9.29226 4.74676 9.14918 4.6875 9 4.6875C8.85082 4.6875 8.70774 4.74676 8.60225 4.85225C8.49676 4.95774 8.4375 5.10082 8.4375 5.25L8.4375 9C8.43746 9.09537 8.46167 9.18918 8.50785 9.27262C8.55403 9.35606 8.62067 9.42639 8.7015 9.477L10.9515 10.8833C11.078 10.9624 11.2308 10.9881 11.3762 10.9546C11.4482 10.938 11.5163 10.9074 11.5765 10.8646C11.6366 10.8217 11.6878 10.7674 11.727 10.7048C11.7662 10.6421 11.7927 10.5724 11.8049 10.4995C11.8172 10.4266 11.8149 10.352 11.7984 10.28C11.7818 10.208 11.7512 10.14 11.7083 10.0798C11.6654 10.0196 11.6111 9.96845 11.5485 9.92925L9.5625 8.688L9.5625 5.25Z" fill="#001830"/>
</svg>
