<svg width="80" height="80" viewBox="0 0 80 80" fill="none" xmlns="http://www.w3.org/2000/svg">
<path d="M39.9738 44.4076C30.2236 44.0897 27.8852 35.7416 27.3846 33.0465C26.446 32.829 25.6096 32.2977 25.0138 31.5405C24.3336 30.6032 24.0181 29.4503 24.1263 28.2973C24.049 27.676 24.103 27.0455 24.2847 26.4464C24.4665 25.8473 24.772 25.293 25.1814 24.8194C25.4125 24.5825 25.6782 24.382 25.9695 24.2248C24.1573 21.2991 23.2648 17.8969 23.4073 14.4584C24.536 6.3935 31.0355 5.60863 33.0711 5.56323C34.008 4.47352 35.1792 3.60981 36.4971 3.03674C38.9657 2.04098 41.6942 1.88896 44.2582 2.60431C49.2982 3.91998 52.6592 6.44323 54.2538 10.1048C56.5241 15.3092 54.5328 21.2994 53.389 23.9892C53.8252 24.1309 54.2272 24.3617 54.5695 24.667C55.0353 25.1399 55.3863 25.7134 55.5955 26.3434C55.8047 26.9734 55.8664 27.6429 55.776 28.3005C55.8852 29.4535 55.57 30.6066 54.8895 31.5438C54.2931 32.3008 53.4565 32.832 52.5176 33.0497C52.0171 35.7416 49.6841 44.0897 39.9738 44.4076ZM27.776 25.9535C27.3926 25.9356 27.0175 26.0692 26.7317 26.3254C26.5338 26.6025 26.3928 26.9162 26.3169 27.2481C26.2411 27.5801 26.2317 27.9238 26.2895 28.2594C26.294 28.3316 26.2915 28.404 26.2819 28.4757C26.2232 29.0962 26.3834 29.7177 26.7349 30.2324C26.9541 30.4773 27.2201 30.6759 27.5171 30.8166C27.8141 30.9574 28.1363 31.0373 28.4646 31.0519C28.7118 31.0811 28.9414 31.1947 29.1145 31.3735C29.2876 31.5524 29.3937 31.7855 29.4149 32.0335C29.4506 32.4357 30.4095 41.933 39.976 42.2465C49.4895 41.933 50.4528 32.4357 50.4884 32.0313C50.5101 31.7837 50.6164 31.5511 50.7895 31.3727C50.9626 31.1943 51.1918 31.081 51.4387 31.0519C51.7671 31.0375 52.0893 30.9575 52.3863 30.8168C52.6834 30.6761 52.9493 30.4774 53.1684 30.2324C53.5215 29.7151 53.6818 29.0904 53.6214 28.467C53.6124 28.3975 53.6099 28.3273 53.6138 28.2573C53.6723 27.9107 53.6592 27.5558 53.5753 27.2144C53.4915 26.8731 53.3386 26.5525 53.1263 26.2724C52.7886 26.0237 52.3684 25.9138 51.9522 25.9654C51.7521 26.0009 51.5461 25.9793 51.3578 25.903C51.1694 25.8268 51.0064 25.699 50.8873 25.5344C50.7683 25.3697 50.698 25.1749 50.6846 24.9721C50.6713 24.7694 50.7153 24.567 50.8117 24.3881C50.8517 24.3124 54.8117 16.7967 52.2668 10.9557C50.949 7.93728 48.0722 5.83025 43.7144 4.69296C41.6199 4.10022 39.3884 4.21421 37.3652 5.01728C36.2142 5.51319 35.2109 6.29823 34.4528 7.2962C34.3436 7.44466 34.198 7.56246 34.03 7.63821C33.862 7.71396 33.6774 7.7451 33.4938 7.72863C33.2138 7.70593 26.5944 7.27782 25.5565 14.6778C25.5565 14.6778 25.2571 20.5643 28.6668 24.1319C28.8154 24.2872 28.9143 24.4833 28.9509 24.6951C28.9875 24.907 28.9601 25.1249 28.8722 25.3211C28.7912 25.5223 28.6485 25.6926 28.4645 25.8074C28.2805 25.9222 28.0648 25.9757 27.8484 25.96L27.776 25.9535Z" fill="white"/>
<path d="M51.7639 25.9795C51.4848 25.9797 51.2165 25.8721 51.015 25.679C50.8135 25.486 50.6945 25.2226 50.6828 24.9438C50.6698 24.6638 50.3347 18.133 45.459 17.5049C43.2289 17.7881 40.9645 17.6115 38.8052 16.986C36.646 16.3606 34.6378 15.2994 32.9044 13.8681C31.526 14.9049 28.3498 18.0562 28.9606 24.7773C28.9687 25.0524 28.8715 25.3202 28.6889 25.5262C28.5064 25.7321 28.2521 25.8607 27.978 25.8856C27.7039 25.9106 27.4306 25.83 27.2139 25.6605C26.9971 25.4909 26.8532 25.245 26.8114 24.973C25.9152 15.1124 32.2471 11.6897 32.5163 11.5492C32.7167 11.4446 32.9448 11.4055 33.1686 11.4373C33.3924 11.4691 33.6005 11.5702 33.7639 11.7265C35.3048 13.1221 37.1289 14.1686 39.1115 14.7942C41.0942 15.4198 43.1886 15.6099 45.2514 15.3513C45.3504 15.3353 45.451 15.3317 45.5509 15.3405C51.0471 15.9124 52.726 21.8173 52.8449 24.854C52.8561 25.1401 52.7533 25.4189 52.5591 25.6293C52.365 25.8396 52.0953 25.9644 51.8093 25.9762L51.7639 25.9795Z" fill="white"/>
<path d="M70.3668 77.8377H9.63382C9.3471 77.8377 9.07212 77.7238 8.86938 77.5211C8.66663 77.3184 8.55273 77.0434 8.55273 76.7567V64.7048C8.56046 60.8956 10.0785 57.245 12.7738 54.5535C15.4692 51.862 19.122 50.3492 22.9311 50.3469H25.0068C25.2935 50.3469 25.5685 50.4608 25.7712 50.6636C25.974 50.8663 26.0879 51.1413 26.0879 51.428C26.0879 51.7147 25.974 51.9897 25.7712 52.1924C25.5685 52.3952 25.2935 52.5091 25.0068 52.5091H22.9311C19.6953 52.5108 16.5921 53.7956 14.3021 56.0818C12.0121 58.3679 10.7221 61.4689 10.7149 64.7048V75.6756H69.2857V64.7048C69.282 61.4714 67.9959 58.3716 65.7096 56.0852C63.4232 53.7989 60.3234 52.5128 57.09 52.5091H54.8652C54.5784 52.5091 54.3035 52.3952 54.1007 52.1924C53.898 51.9897 53.7841 51.7147 53.7841 51.428C53.7841 51.1413 53.898 50.8663 54.1007 50.6636C54.3035 50.4608 54.5784 50.3469 54.8652 50.3469H57.09C60.8963 50.3524 64.5451 51.8668 67.2366 54.5582C69.928 57.2497 71.4424 60.8985 71.4479 64.7048V76.7567C71.4479 77.0434 71.334 77.3184 71.1312 77.5211C70.9285 77.7238 70.6535 77.8377 70.3668 77.8377Z" fill="white"/>
<path d="M43.6125 77.8378C43.4569 77.8379 43.3031 77.8043 43.1617 77.7394C43.0203 77.6746 42.8945 77.5799 42.793 77.462C42.6915 77.3441 42.6166 77.2056 42.5735 77.0561C42.5304 76.9066 42.5201 76.7495 42.5433 76.5957L46.9185 47.6411C46.9416 47.4879 46.9974 47.3415 47.0821 47.2118C47.1668 47.082 47.2784 46.972 47.4093 46.8892C47.5403 46.8064 47.6874 46.7526 47.8409 46.7316C47.9944 46.7107 48.1506 46.7229 48.299 46.7676L55.8493 49.0432C55.9996 49.0886 56.1383 49.1661 56.2556 49.2705C56.373 49.3749 56.4662 49.5036 56.5287 49.6476C56.5913 49.7917 56.6217 49.9476 56.6179 50.1046C56.6141 50.2616 56.5761 50.4159 56.5066 50.5568L53.5055 56.5784L55.246 58.5319C55.4003 58.7063 55.4941 58.9258 55.5136 59.1577C55.5331 59.3897 55.4771 59.6218 55.3541 59.8195L44.5314 77.3254C44.4346 77.482 44.2993 77.6113 44.1385 77.701C43.9777 77.7906 43.7966 77.8377 43.6125 77.8378ZM48.8709 49.1978L45.4709 71.6984L53.0957 59.3741L51.406 57.4768C51.2623 57.3156 51.1701 57.115 51.1414 56.9009C51.1127 56.6868 51.1487 56.4691 51.2449 56.2757L53.9995 50.747L48.8709 49.1978Z" fill="white"/>
<path d="M36.262 77.8379C36.0777 77.838 35.8964 77.791 35.7354 77.7013C35.5743 77.6116 35.4389 77.4823 35.342 77.3255L24.516 59.8228C24.393 59.6252 24.3371 59.3931 24.3566 59.1611C24.376 58.9291 24.4699 58.7096 24.6241 58.5352L26.3647 56.5817L23.3636 50.5601C23.2941 50.4193 23.2561 50.265 23.2523 50.108C23.2484 49.951 23.2789 49.795 23.3414 49.651C23.404 49.5069 23.4972 49.3783 23.6145 49.2739C23.7319 49.1695 23.8705 49.0919 24.0209 49.0466L31.5712 46.7709C31.7195 46.7264 31.8756 46.7143 32.0289 46.7354C32.1823 46.7565 32.3293 46.8102 32.4601 46.8931C32.5909 46.9759 32.7024 47.0858 32.787 47.2155C32.8716 47.3451 32.9274 47.4914 32.9506 47.6444L37.3279 76.599C37.3506 76.7524 37.3399 76.9088 37.2968 77.0577C37.2537 77.2066 37.179 77.3445 37.0779 77.462C36.9768 77.5795 36.8517 77.6738 36.7109 77.7387C36.5701 77.8036 36.417 77.8374 36.262 77.8379ZM26.7787 59.3709L34.4036 71.6952L31.0036 49.1979L25.875 50.7439L28.6285 56.2725C28.7248 56.4658 28.7611 56.6835 28.7326 56.8976C28.704 57.1117 28.6121 57.3123 28.4685 57.4736L26.7787 59.3709Z" fill="white"/>
<path d="M40.0189 57.681C37.6814 57.6794 35.3461 57.5379 33.0254 57.2573C32.8815 57.2441 32.7417 57.2022 32.6143 57.134C32.4868 57.0659 32.3743 56.9729 32.2835 56.8605C32.1926 56.7482 32.1252 56.6187 32.0852 56.4798C32.0452 56.341 32.0335 56.1955 32.0507 56.052C32.0679 55.9085 32.1137 55.7699 32.1853 55.6444C32.257 55.519 32.3531 55.4091 32.468 55.3214C32.5829 55.2337 32.7142 55.1699 32.8541 55.1339C32.994 55.0978 33.1398 55.0901 33.2827 55.1113C37.701 55.6546 42.1693 55.6546 46.5876 55.1113C46.8694 55.0809 47.1518 55.1623 47.3742 55.338C47.5965 55.5137 47.741 55.7698 47.7764 56.051C47.8118 56.3322 47.7354 56.616 47.5636 56.8415C47.3918 57.0669 47.1384 57.2158 46.8579 57.2562C44.5894 57.5409 42.3052 57.6828 40.0189 57.681Z" fill="white"/>
<path d="M47.9902 48.8832C47.8219 48.8826 47.6561 48.8427 47.506 48.7666C47.3558 48.6906 47.2255 48.5806 47.1253 48.4454C45.5189 46.2735 45.228 41.9686 45.201 41.4854C45.1845 41.1992 45.2822 40.9182 45.4728 40.7042C45.6634 40.4901 45.9311 40.3605 46.2172 40.3437C46.5026 40.3303 46.7818 40.4292 46.9952 40.6191C47.2086 40.8091 47.3391 41.075 47.3589 41.3599C47.4248 42.4972 47.8248 45.7567 48.8626 47.1599C48.9813 47.3206 49.0531 47.5109 49.0701 47.7099C49.0871 47.9088 49.0487 48.1086 48.9592 48.2871C48.8696 48.4655 48.7324 48.6157 48.5627 48.7209C48.393 48.8261 48.1974 48.8823 47.9978 48.8832H47.9902Z" fill="white"/>
<path d="M31.8849 48.8833C31.6852 48.8824 31.4897 48.8262 31.32 48.721C31.1503 48.6158 31.013 48.4656 30.9235 48.2871C30.8339 48.1087 30.7955 47.9089 30.8125 47.71C30.8296 47.511 30.9014 47.3207 31.02 47.16C32.06 45.7546 32.4589 42.4963 32.5249 41.36C32.5331 41.2181 32.5692 41.0791 32.6311 40.9511C32.6931 40.8231 32.7796 40.7085 32.8858 40.614C32.992 40.5194 33.1158 40.4467 33.2502 40.4C33.3845 40.3532 33.5267 40.3334 33.6686 40.3417C33.8106 40.3499 33.9496 40.386 34.0776 40.4479C34.2056 40.5099 34.3202 40.5964 34.4147 40.7026C34.5093 40.8089 34.582 40.9326 34.6287 41.067C34.6754 41.2013 34.6953 41.3435 34.687 41.4854C34.66 41.9687 34.3627 46.2736 32.7627 48.4454C32.6613 48.5825 32.5289 48.6936 32.3763 48.7697C32.2237 48.8458 32.0553 48.8847 31.8849 48.8833Z" fill="white"/>
<path d="M61.7883 62.6853C61.5069 62.6854 61.2366 62.5759 61.0347 62.3798C60.8328 62.1838 60.7154 61.9168 60.7072 61.6356C60.505 54.5956 57.8283 52.3805 57.8023 52.3588C57.579 52.1815 57.4341 51.9236 57.3989 51.6405C57.3638 51.3575 57.4411 51.072 57.6142 50.8453C57.7862 50.6205 58.0399 50.4726 58.3202 50.4338C58.6005 50.3949 58.8849 50.4682 59.1115 50.6378C59.2542 50.7459 62.6326 53.3697 62.8694 61.5729C62.8775 61.8593 62.7716 62.1372 62.575 62.3456C62.3784 62.554 62.1071 62.6758 61.8207 62.6842L61.7883 62.6853Z" fill="white"/>
<path d="M61.7941 69.068C60.9489 69.0682 60.1225 68.8178 59.4196 68.3483C58.7167 67.8789 58.1688 67.2115 57.8451 66.4307C57.5215 65.6498 57.4367 64.7905 57.6015 63.9615C57.7663 63.1324 58.1732 62.3708 58.7708 61.7731C59.3685 61.1753 60.1299 60.7682 60.9589 60.6032C61.7879 60.4382 62.6473 60.5228 63.4282 60.8462C64.2091 61.1696 64.8766 61.7174 65.3463 62.4202C65.8159 63.123 66.0666 63.9492 66.0666 64.7945C66.0654 65.9274 65.615 67.0135 64.814 67.8147C64.013 68.6159 62.927 69.0666 61.7941 69.068ZM61.7941 62.6832C61.3765 62.6829 60.9682 62.8066 60.6208 63.0385C60.2735 63.2703 60.0027 63.6 59.8427 63.9858C59.6828 64.3716 59.6408 64.7961 59.7221 65.2058C59.8035 65.6154 60.0045 65.9917 60.2997 66.2871C60.5949 66.5825 60.9712 66.7837 61.3807 66.8652C61.7903 66.9468 62.2149 66.905 62.6008 66.7452C62.9866 66.5855 63.3165 66.3149 63.5485 65.9676C63.7805 65.6204 63.9044 65.2121 63.9044 64.7945C63.9038 64.2349 63.6813 63.6984 63.2857 63.3026C62.8902 62.9068 62.3537 62.684 61.7941 62.6832Z" fill="white"/>
<path d="M17.3854 62.6854C17.1115 62.6861 16.8476 62.5828 16.6469 62.3964C16.4462 62.21 16.3238 61.9543 16.3043 61.6811C15.7151 53.3838 20.287 50.7319 20.4816 50.6227C20.7314 50.4818 21.0268 50.4459 21.3031 50.5228C21.5793 50.5997 21.8137 50.7833 21.9546 51.033C22.0955 51.2827 22.1315 51.5782 22.0545 51.8545C21.9776 52.1307 21.7941 52.3651 21.5443 52.506C21.38 52.6033 17.9768 54.7038 18.46 61.5287C18.4802 61.8147 18.386 62.097 18.198 62.3135C18.0101 62.5301 17.7438 62.6631 17.4578 62.6833L17.3854 62.6854Z" fill="white"/>
<path d="M15.1994 71.3417C15.0321 71.3424 14.8669 71.3044 14.7168 71.2305C14.5668 71.1565 14.4359 71.0488 14.3345 70.9157C13.8068 70.2227 13.418 69.4342 13.1896 68.5936C12.6878 66.9562 12.8524 65.187 13.6478 63.6703C14.4432 62.1537 15.805 61.0123 17.4372 60.4941C18.2114 60.2764 19.0213 60.2151 19.8194 60.3139C20.6176 60.4126 21.3881 60.6694 22.0859 61.0692C23.3088 61.7758 24.287 62.8388 24.8897 64.1161C25.4924 65.3934 25.691 66.8242 25.4588 68.2174C25.4118 68.5002 25.2544 68.7528 25.0211 68.9195C24.7878 69.0863 24.4979 69.1536 24.2151 69.1065C23.9322 69.0595 23.6796 68.9021 23.5129 68.6688C23.3461 68.4356 23.2788 68.1456 23.3259 67.8628C23.4845 66.9082 23.3498 65.9279 22.9394 65.0515C22.529 64.1752 21.8623 63.444 21.0275 62.9547C20.5773 62.6947 20.0799 62.5271 19.5643 62.4616C19.0486 62.3961 18.5251 62.4339 18.0242 62.573C16.941 62.9353 16.0442 63.7101 15.5286 64.7293C15.0129 65.7485 14.9198 66.93 15.2696 68.0174C15.4261 68.5928 15.6926 69.1325 16.0545 69.6065C16.1763 69.7668 16.2509 69.9578 16.2699 70.1581C16.289 70.3584 16.2518 70.5601 16.1625 70.7404C16.0732 70.9208 15.9353 71.0726 15.7644 71.1788C15.5935 71.285 15.3963 71.3414 15.1951 71.3417H15.1994Z" fill="white"/>
<path d="M24.4065 69.1233C24.3644 69.1233 24.3211 69.1233 24.2779 69.1168L23.0595 68.973C22.9185 68.9563 22.7821 68.9119 22.6582 68.8425C22.5343 68.773 22.4253 68.6798 22.3374 68.5683C22.2495 68.4567 22.1845 68.3289 22.146 68.1922C22.1075 68.0554 22.0963 67.9125 22.113 67.7714C22.1298 67.6304 22.1741 67.494 22.2436 67.3701C22.313 67.2462 22.4062 67.1372 22.5178 67.0493C22.7432 66.8718 23.0298 66.7911 23.3146 66.8249L24.533 66.9698C24.8066 67.0023 25.0575 67.1381 25.2344 67.3494C25.4112 67.5607 25.5007 67.8316 25.4846 68.1067C25.4684 68.3817 25.3478 68.6403 25.1475 68.8294C24.9471 69.0186 24.6821 69.123 24.4065 69.1233Z" fill="white"/>
<path d="M15.1997 71.3514C14.9459 71.3517 14.7001 71.2627 14.5052 71.1C14.3104 70.9373 14.1791 70.7112 14.1342 70.4614C14.0893 70.2115 14.1338 69.9539 14.2599 69.7335C14.3859 69.5132 14.5854 69.3442 14.8235 69.2562L16.1208 68.7773C16.2539 68.7276 16.3955 68.7046 16.5375 68.7097C16.6795 68.7147 16.8191 68.7476 16.9483 68.8066C17.0776 68.8656 17.1939 68.9494 17.2908 69.0534C17.3876 69.1573 17.463 69.2793 17.5127 69.4124C17.5624 69.5455 17.5854 69.6871 17.5804 69.8291C17.5753 69.9711 17.5424 70.1107 17.4834 70.2399C17.4244 70.3692 17.3406 70.4855 17.2366 70.5824C17.1327 70.6792 17.0107 70.7547 16.8776 70.8043L15.5803 71.2843C15.4585 71.3294 15.3296 71.3521 15.1997 71.3514Z" fill="white"/>
</svg>
