<svg width="80" height="80" viewBox="0 0 80 80" fill="none" xmlns="http://www.w3.org/2000/svg">
<rect width="80" height="80" rx="40" transform="matrix(-1 0 0 1 80 0)" fill="#001830"/>
<path d="M39.9859 42.2038C35.1108 42.0449 33.9416 37.8708 33.6913 36.5232C33.222 36.4145 32.8038 36.1489 32.5059 35.7703C32.1658 35.3016 32.0081 34.7252 32.0622 34.1486C32.0235 33.838 32.0505 33.5227 32.1414 33.2232C32.2323 32.9237 32.385 32.6465 32.5897 32.4097C32.7053 32.2913 32.8381 32.191 32.9838 32.1124C32.0777 30.6496 31.6314 28.9485 31.7027 27.2292C32.267 23.1967 35.5168 22.8043 36.5346 22.7816C37.003 22.2368 37.5886 21.8049 38.2476 21.5184C39.4819 21.0205 40.8461 20.9445 42.1281 21.3022C44.6481 21.96 46.3286 23.2216 47.1259 25.0524C48.2611 27.6546 47.2654 30.6497 46.6935 31.9946C46.9116 32.0655 47.1126 32.1809 47.2838 32.3335C47.5167 32.57 47.6922 32.8567 47.7968 33.1717C47.9014 33.4867 47.9322 33.8215 47.887 34.1503C47.9416 34.7267 47.784 35.3033 47.4438 35.7719C47.1456 36.1504 46.7273 36.416 46.2578 36.5249C46.0076 37.8708 44.8411 42.0449 39.9859 42.2038ZM33.887 32.9767C33.6953 32.9678 33.5078 33.0346 33.3649 33.1627C33.2659 33.3013 33.1954 33.4581 33.1575 33.6241C33.1195 33.7901 33.1149 33.9619 33.1438 34.1297C33.146 34.1658 33.1448 34.202 33.14 34.2378C33.1106 34.5481 33.1907 34.8588 33.3665 35.1162C33.4761 35.2387 33.6091 35.338 33.7576 35.4083C33.9061 35.4787 34.0672 35.5187 34.2313 35.5259C34.3549 35.5405 34.4697 35.5974 34.5563 35.6868C34.6428 35.7762 34.6959 35.8927 34.7065 36.0167C34.7243 36.2178 35.2038 40.9665 39.987 41.1232C44.7438 40.9665 45.2254 36.2178 45.2432 36.0157C45.2541 35.8919 45.3072 35.7756 45.3938 35.6864C45.4803 35.5972 45.5949 35.5405 45.7184 35.5259C45.8826 35.5187 46.0437 35.4788 46.1922 35.4084C46.3407 35.338 46.4737 35.2387 46.5832 35.1162C46.7597 34.8576 46.8399 34.5452 46.8097 34.2335C46.8052 34.1987 46.804 34.1636 46.8059 34.1286C46.8352 33.9553 46.8286 33.7779 46.7867 33.6072C46.7448 33.4365 46.6683 33.2762 46.5622 33.1362C46.3933 33.0119 46.1832 32.9569 45.9751 32.9827C45.8751 33.0004 45.7721 32.9896 45.6779 32.9515C45.5837 32.9134 45.5022 32.8495 45.4427 32.7672C45.3832 32.6849 45.348 32.5874 45.3413 32.4861C45.3347 32.3847 45.3567 32.2835 45.4049 32.194C45.4249 32.1562 47.4049 28.3984 46.1324 25.4778C45.4735 23.9686 44.0351 22.9151 41.8562 22.3465C40.809 22.0501 39.6932 22.1071 38.6816 22.5086C38.1061 22.7566 37.6045 23.1491 37.2254 23.6481C37.1708 23.7223 37.098 23.7812 37.014 23.8191C36.93 23.857 36.8377 23.8726 36.7459 23.8643C36.6059 23.853 33.2962 23.6389 32.7773 27.3389C32.7773 27.3389 32.6276 30.2822 34.3324 32.0659C34.4067 32.1436 34.4562 32.2417 34.4745 32.3476C34.4928 32.4535 34.4791 32.5624 34.4351 32.6605C34.3946 32.7611 34.3233 32.8463 34.2313 32.9037C34.1393 32.9611 34.0314 32.9878 33.9232 32.98L33.887 32.9767Z" fill="white"/>
<path d="M45.881 32.9897C45.7414 32.9898 45.6073 32.936 45.5065 32.8395C45.4058 32.743 45.3463 32.6113 45.3404 32.4719C45.3339 32.3319 45.1664 29.0665 42.7285 28.7524C41.6135 28.894 40.4813 28.8058 39.4016 28.493C38.322 28.1803 37.3179 27.6497 36.4512 26.9341C35.762 27.4524 34.1739 29.0281 34.4793 32.3886C34.4834 32.5262 34.4348 32.6601 34.3435 32.7631C34.2522 32.8661 34.1251 32.9303 33.988 32.9428C33.851 32.9553 33.7143 32.915 33.606 32.8302C33.4976 32.7454 33.4256 32.6225 33.4047 32.4865C32.9566 27.5562 36.1226 25.8449 36.2572 25.7746C36.3574 25.7223 36.4714 25.7027 36.5833 25.7186C36.6952 25.7345 36.7993 25.7851 36.881 25.8632C37.6514 26.5611 38.5635 27.0843 39.5548 27.3971C40.5461 27.7099 41.5933 27.8049 42.6247 27.6757C42.6742 27.6677 42.7245 27.6659 42.7745 27.6703C45.5226 27.9562 46.362 30.9086 46.4215 32.427C46.4271 32.5701 46.3757 32.7094 46.2786 32.8146C46.1815 32.9198 46.0467 32.9822 45.9037 32.9881L45.881 32.9897Z" fill="white"/>
<path d="M55.1824 58.9189H24.8159C24.6726 58.9189 24.5351 58.862 24.4337 58.7606C24.3323 58.6592 24.2754 58.5217 24.2754 58.3784V52.3524C24.2793 50.4479 25.0383 48.6226 26.3859 47.2768C27.7336 45.9311 29.56 45.1747 31.4646 45.1735H32.5024C32.6458 45.1735 32.7833 45.2305 32.8846 45.3318C32.986 45.4332 33.043 45.5707 33.043 45.7141C33.043 45.8574 32.986 45.9949 32.8846 46.0963C32.7833 46.1977 32.6458 46.2546 32.5024 46.2546H31.4646C29.8467 46.2555 28.2951 46.8979 27.1501 48.0409C26.0051 49.184 25.36 50.7345 25.3565 52.3524V57.8378H54.6419V52.3524C54.64 50.7358 53.997 49.1858 52.8538 48.0427C51.7106 46.8995 50.1607 46.2565 48.544 46.2546H47.4316C47.2882 46.2546 47.1508 46.1977 47.0494 46.0963C46.948 45.9949 46.8911 45.8574 46.8911 45.7141C46.8911 45.5707 46.948 45.4332 47.0494 45.3318C47.1508 45.2305 47.2882 45.1735 47.4316 45.1735H48.544C50.4472 45.1762 52.2716 45.9335 53.6173 47.2792C54.963 48.6249 55.7202 50.4493 55.723 52.3524V58.3784C55.723 58.5217 55.666 58.6592 55.5646 58.7606C55.4633 58.862 55.3258 58.9189 55.1824 58.9189Z" fill="white"/>
<path d="M41.8063 58.9189C41.7285 58.9189 41.6516 58.9022 41.5808 58.8697C41.5101 58.8373 41.4472 58.79 41.3965 58.731C41.3457 58.672 41.3083 58.6028 41.2868 58.5281C41.2652 58.4533 41.2601 58.3748 41.2717 58.2978L43.4592 43.8205C43.4708 43.7439 43.4987 43.6707 43.5411 43.6059C43.5834 43.541 43.6392 43.486 43.7047 43.4446C43.7701 43.4032 43.8437 43.3763 43.9205 43.3658C43.9972 43.3553 44.0753 43.3615 44.1495 43.3838L47.9246 44.5216C47.9998 44.5443 48.0691 44.5831 48.1278 44.6353C48.1865 44.6874 48.2331 44.7518 48.2644 44.8238C48.2956 44.8958 48.3109 44.9738 48.3089 45.0523C48.307 45.1308 48.288 45.208 48.2533 45.2784L46.7527 48.2892L47.623 49.2659C47.7001 49.3531 47.7471 49.4629 47.7568 49.5789C47.7665 49.6949 47.7386 49.8109 47.6771 49.9097L42.2657 58.6627C42.2173 58.741 42.1497 58.8056 42.0693 58.8505C41.9888 58.8953 41.8983 58.9189 41.8063 58.9189ZM44.4354 44.5989L42.7354 55.8492L46.5479 49.687L45.703 48.7384C45.6311 48.6578 45.585 48.5575 45.5707 48.4505C45.5563 48.3434 45.5744 48.2345 45.6225 48.1378L46.9998 45.3735L44.4354 44.5989Z" fill="white"/>
<path d="M38.132 58.9189C38.0398 58.919 37.9492 58.8954 37.8687 58.8506C37.7881 58.8058 37.7204 58.7411 37.672 58.6627L32.259 49.9113C32.1975 49.8125 32.1695 49.6965 32.1793 49.5805C32.189 49.4645 32.2359 49.3547 32.313 49.2676L33.1833 48.2908L31.6828 45.28C31.648 45.2096 31.629 45.1324 31.6271 45.0539C31.6252 44.9754 31.6404 44.8975 31.6717 44.8254C31.703 44.7534 31.7496 44.6891 31.8082 44.6369C31.8669 44.5847 31.9362 44.5459 32.0114 44.5232L35.7866 43.3854C35.8607 43.3632 35.9388 43.3571 36.0154 43.3676C36.0921 43.3782 36.1656 43.4051 36.231 43.4465C36.2964 43.4879 36.3522 43.5428 36.3945 43.6077C36.4368 43.6725 36.4647 43.7456 36.4763 43.8222L38.6649 58.2994C38.6763 58.3761 38.671 58.4543 38.6494 58.5288C38.6278 58.6032 38.5905 58.6722 38.5399 58.7309C38.4894 58.7897 38.4268 58.8369 38.3564 58.8693C38.286 58.9017 38.2095 58.9187 38.132 58.9189ZM33.3903 49.6854L37.2028 55.8476L35.5028 44.5989L32.9385 45.3719L34.3152 48.1362C34.3634 48.2328 34.3815 48.3417 34.3673 48.4487C34.353 48.5558 34.307 48.6561 34.2352 48.7367L33.3903 49.6854Z" fill="white"/>
<path d="M40.0095 48.8406C38.8407 48.8397 37.673 48.769 36.5127 48.6287C36.4408 48.6221 36.3709 48.6011 36.3071 48.567C36.2434 48.533 36.1872 48.4865 36.1417 48.4303C36.0963 48.3741 36.0626 48.3094 36.0426 48.2399C36.0226 48.1705 36.0167 48.0978 36.0253 48.026C36.0339 47.9543 36.0568 47.885 36.0927 47.8223C36.1285 47.7595 36.1766 47.7046 36.234 47.6607C36.2914 47.6169 36.3571 47.585 36.427 47.567C36.497 47.5489 36.5699 47.5451 36.6414 47.5557C38.8505 47.8274 41.0846 47.8274 43.2938 47.5557C43.4347 47.5405 43.5759 47.5812 43.6871 47.669C43.7983 47.7569 43.8705 47.8849 43.8882 48.0255C43.9059 48.1661 43.8677 48.308 43.7818 48.4208C43.6959 48.5335 43.5692 48.6079 43.4289 48.6281C42.2947 48.7705 41.1526 48.8414 40.0095 48.8406Z" fill="white"/>
<path d="M43.9951 44.4416C43.911 44.4413 43.8281 44.4214 43.753 44.3834C43.6779 44.3453 43.6127 44.2903 43.5627 44.2227C42.7594 43.1368 42.614 40.9843 42.6005 40.7427C42.5922 40.5996 42.6411 40.4592 42.7364 40.3521C42.8317 40.2451 42.9656 40.1803 43.1086 40.1719C43.2513 40.1652 43.3909 40.2146 43.4976 40.3096C43.6043 40.4046 43.6696 40.5375 43.6794 40.68C43.7124 41.2487 43.9124 42.8784 44.4313 43.58C44.4906 43.6603 44.5265 43.7555 44.535 43.855C44.5436 43.9544 44.5244 44.0543 44.4796 44.1436C44.4348 44.2328 44.3662 44.3079 44.2813 44.3605C44.1965 44.4131 44.0987 44.4412 43.9989 44.4416H43.9951Z" fill="white"/>
<path d="M35.9424 44.4416C35.8426 44.4412 35.7448 44.4131 35.66 44.3605C35.5751 44.3079 35.5065 44.2328 35.4617 44.1435C35.4169 44.0543 35.3977 43.9544 35.4063 43.8549C35.4148 43.7555 35.4507 43.6603 35.51 43.58C36.03 42.8773 36.2295 41.2481 36.2624 40.68C36.2665 40.609 36.2846 40.5395 36.3156 40.4755C36.3465 40.4115 36.3898 40.3542 36.4429 40.307C36.496 40.2597 36.5579 40.2233 36.6251 40.2C36.6922 40.1766 36.7633 40.1667 36.8343 40.1708C36.9053 40.1749 36.9748 40.193 37.0388 40.2239C37.1028 40.2549 37.1601 40.2982 37.2074 40.3513C37.2546 40.4044 37.291 40.4663 37.3144 40.5334C37.3377 40.6006 37.3476 40.6717 37.3435 40.7427C37.33 40.9843 37.1813 43.1367 36.3813 44.2227C36.3306 44.2912 36.2644 44.3468 36.1881 44.3848C36.1119 44.4228 36.0277 44.4423 35.9424 44.4416Z" fill="white"/>
<path d="M50.8941 51.3427C50.7535 51.3428 50.6183 51.288 50.5174 51.19C50.4164 51.0919 50.3577 50.9585 50.3536 50.8178C50.2525 47.2978 48.9141 46.1903 48.9012 46.1794C48.7895 46.0908 48.7171 45.9618 48.6995 45.8203C48.6819 45.6788 48.7205 45.536 48.8071 45.4227C48.8931 45.3103 49.0199 45.2363 49.1601 45.2169C49.3003 45.1975 49.4425 45.2341 49.5558 45.3189C49.6271 45.373 51.3163 46.6849 51.4347 50.7865C51.4388 50.9297 51.3858 51.0686 51.2875 51.1728C51.1892 51.277 51.0535 51.3379 50.9104 51.3422L50.8941 51.3427Z" fill="white"/>
<path d="M50.8971 54.534C50.4744 54.5341 50.0613 54.4089 49.7098 54.1742C49.3583 53.9395 49.0844 53.6058 48.9226 53.2154C48.7608 52.8249 48.7184 52.3953 48.8008 51.9808C48.8831 51.5662 49.0866 51.1854 49.3854 50.8866C49.6842 50.5877 50.065 50.3841 50.4795 50.3016C50.894 50.2191 51.3236 50.2614 51.7141 50.4231C52.1046 50.5848 52.4383 50.8587 52.6731 51.2101C52.9079 51.5615 53.0333 51.9747 53.0333 52.3973C53.0327 52.9637 52.8075 53.5068 52.407 53.9074C52.0065 54.308 51.4635 54.5333 50.8971 54.534ZM50.8971 51.3416C50.6882 51.3415 50.4841 51.4033 50.3104 51.5193C50.1367 51.6352 50.0013 51.8 49.9214 51.9929C49.8414 52.1858 49.8204 52.3981 49.8611 52.6029C49.9017 52.8077 50.0022 52.9959 50.1499 53.1436C50.2975 53.2913 50.4856 53.3919 50.6904 53.4326C50.8952 53.4734 51.1075 53.4525 51.3004 53.3727C51.4933 53.2928 51.6582 53.1575 51.7742 52.9838C51.8903 52.8102 51.9522 52.6061 51.9522 52.3973C51.9519 52.1175 51.8407 51.8492 51.6429 51.6513C51.4451 51.4534 51.1769 51.342 50.8971 51.3416Z" fill="white"/>
<path d="M28.6937 51.3427C28.5567 51.3431 28.4248 51.2914 28.3244 51.1982C28.2241 51.105 28.1629 50.9772 28.1531 50.8406C27.8585 46.6919 30.1445 45.366 30.2418 45.3114C30.3667 45.2409 30.5144 45.2229 30.6525 45.2614C30.7906 45.2999 30.9078 45.3916 30.9783 45.5165C31.0487 45.6414 31.0667 45.7891 31.0282 45.9272C30.9898 46.0653 30.898 46.1825 30.7731 46.253C30.691 46.3016 28.9894 47.3519 29.231 50.7643C29.2411 50.9073 29.194 51.0485 29.1 51.1568C29.006 51.265 28.8729 51.3315 28.7299 51.3416L28.6937 51.3427Z" fill="white"/>
<path d="M27.5987 55.6708C27.5151 55.6712 27.4325 55.6522 27.3574 55.6152C27.2824 55.5782 27.217 55.5244 27.1663 55.4578C26.9024 55.1113 26.708 54.7171 26.5938 54.2968C26.3429 53.4781 26.4252 52.5935 26.8229 51.8351C27.2206 51.0768 27.9015 50.5061 28.7176 50.247C29.1047 50.1382 29.5097 50.1075 29.9087 50.1569C30.3078 50.2063 30.693 50.3347 31.042 50.5346C31.6534 50.8879 32.1425 51.4193 32.4439 52.058C32.7452 52.6967 32.8445 53.4121 32.7284 54.1086C32.7049 54.2501 32.6262 54.3764 32.5096 54.4597C32.3929 54.5431 32.248 54.5768 32.1065 54.5532C31.9651 54.5297 31.8388 54.451 31.7555 54.3344C31.6721 54.2177 31.6384 54.0728 31.662 53.9313C31.7413 53.4541 31.6739 52.9639 31.4687 52.5257C31.2635 52.0876 30.9302 51.722 30.5128 51.4773C30.2877 51.3473 30.039 51.2635 29.7812 51.2308C29.5233 51.198 29.2616 51.2169 29.0111 51.2865C28.4695 51.4676 28.0211 51.855 27.7633 52.3646C27.5055 52.8742 27.4589 53.465 27.6338 54.0086C27.7121 54.2964 27.8453 54.5662 28.0263 54.8032C28.0872 54.8834 28.1245 54.9789 28.134 55.079C28.1435 55.1792 28.1249 55.28 28.0803 55.3702C28.0356 55.4604 27.9667 55.5363 27.8812 55.5894C27.7958 55.6425 27.6972 55.6707 27.5965 55.6708H27.5987Z" fill="white"/>
<path d="M32.2033 54.5616C32.1822 54.5616 32.1606 54.5616 32.1389 54.5584L31.5298 54.4865C31.4592 54.4781 31.391 54.4559 31.3291 54.4212C31.2671 54.3865 31.2126 54.3399 31.1687 54.2841C31.1248 54.2283 31.0922 54.1644 31.073 54.096C31.0537 54.0277 31.0481 53.9562 31.0565 53.8857C31.0649 53.8152 31.0871 53.747 31.1218 53.685C31.1565 53.6231 31.2031 53.5686 31.2589 53.5246C31.3716 53.4359 31.5149 53.3955 31.6573 53.4124L32.2665 53.4849C32.4033 53.5011 32.5287 53.569 32.6172 53.6747C32.7056 53.7803 32.7504 53.9158 32.7423 54.0533C32.7342 54.1908 32.6739 54.3201 32.5737 54.4147C32.4736 54.5093 32.341 54.5615 32.2033 54.5616Z" fill="white"/>
<path d="M27.5999 55.6757C27.473 55.6759 27.35 55.6314 27.2526 55.55C27.1552 55.4686 27.0895 55.3556 27.0671 55.2307C27.0447 55.1058 27.0669 54.9769 27.1299 54.8668C27.1929 54.7566 27.2927 54.6721 27.4118 54.6281L28.0604 54.3887C28.127 54.3638 28.1978 54.3523 28.2687 54.3548C28.3397 54.3573 28.4095 54.3738 28.4742 54.4033C28.5388 54.4328 28.597 54.4747 28.6454 54.5267C28.6938 54.5787 28.7315 54.6397 28.7564 54.7062C28.7812 54.7728 28.7927 54.8436 28.7902 54.9146C28.7877 54.9855 28.7712 55.0553 28.7417 55.12C28.7122 55.1846 28.6703 55.2428 28.6183 55.2912C28.5663 55.3396 28.5053 55.3773 28.4388 55.4022L27.7901 55.6422C27.7292 55.6647 27.6648 55.676 27.5999 55.6757Z" fill="white"/>
</svg>
