<svg width="80" height="80" viewBox="0 0 80 80" fill="none" xmlns="http://www.w3.org/2000/svg">
<rect width="80" height="80" rx="40" transform="matrix(-1 0 0 1 80 0)" fill="#001830"/>
<g clip-path="url(#clip0_293_24070)">
<path d="M48.4064 44.5696C48.0482 44.2487 47.4977 44.28 47.1786 44.6374C45.3647 46.6644 42.749 47.8261 40.0003 47.8261C37.2525 47.8261 34.636 46.6644 32.8221 44.6374C32.5012 44.28 31.9525 44.2487 31.5943 44.5696C31.236 44.8896 31.2064 45.4391 31.5264 45.7974C33.6699 48.1922 36.7586 49.5652 40.0003 49.5652C43.243 49.5652 46.3316 48.1913 48.4743 45.7974C48.7943 45.4391 48.7638 44.8896 48.4064 44.5696Z" fill="white"/>
<path d="M40 20C28.9722 20 20 28.9722 20 40C20 51.0278 28.9722 60 40 60C51.0278 60 60 51.0278 60 40C60 28.9722 51.0278 20 40 20ZM40 58.2609C29.9304 58.2609 21.7391 50.0696 21.7391 40C21.7391 29.9304 29.9304 21.7391 40 21.7391C50.0696 21.7391 58.2609 29.9304 58.2609 40C58.2609 50.0696 50.0696 58.2609 40 58.2609Z" fill="white"/>
<path d="M46.9572 33.9131C44.5598 33.9131 42.6094 35.8635 42.6094 38.2609C42.6094 38.7409 42.9989 39.1304 43.4789 39.1304C43.9589 39.1304 44.3485 38.7409 44.3485 38.2609C44.3485 36.8226 45.5189 35.6522 46.9572 35.6522C48.3955 35.6522 49.5659 36.8226 49.5659 38.2609C49.5659 38.7409 49.9555 39.1304 50.4355 39.1304C50.9155 39.1304 51.305 38.7409 51.305 38.2609C51.305 35.8635 49.3546 33.9131 46.9572 33.9131Z" fill="white"/>
<path d="M35.6518 38.2609C35.6518 38.7409 36.0414 39.1304 36.5214 39.1304C37.0014 39.1304 37.391 38.7409 37.391 38.2609C37.391 35.8635 35.4405 33.9131 33.0431 33.9131C30.6457 33.9131 28.6953 35.8635 28.6953 38.2609C28.6953 38.7409 29.0849 39.1304 29.5649 39.1304C30.0449 39.1304 30.4344 38.7409 30.4344 38.2609C30.4344 36.8226 31.6049 35.6522 33.0431 35.6522C34.4814 35.6522 35.6518 36.8226 35.6518 38.2609Z" fill="white"/>
</g>
<defs>
<clipPath id="clip0_293_24070">
<rect width="40" height="40" fill="white" transform="translate(20 20)"/>
</clipPath>
</defs>
</svg>
