<svg width="80" height="80" viewBox="0 0 80 80" fill="none" xmlns="http://www.w3.org/2000/svg">
<rect width="80" height="80" rx="40" transform="matrix(-1 0 0 1 80 0)" fill="#001830"/>
<g clip-path="url(#clip0_293_23449)">
<path d="M55.6917 55.0756L50.6315 46.3111C51.4708 45.6044 52.0508 44.5992 52.2057 43.4602C52.311 42.6857 52.7093 41.9957 53.3274 41.5173C54.9296 40.2771 55.5126 38.1012 54.7453 36.2259C54.4492 35.5025 54.4492 34.7058 54.7453 33.9824C55.5126 32.1072 54.9296 29.9314 53.3274 28.6911C52.7093 28.2127 52.3109 27.5226 52.2057 26.7481C51.9326 24.7405 50.3397 23.1476 48.3321 22.8747C47.5577 22.7693 46.8677 22.371 46.3893 21.7529C45.149 20.1506 42.9733 19.5677 41.0979 20.3351C40.3745 20.6311 39.5777 20.6311 38.8544 20.3351C36.9793 19.5676 34.8033 20.1506 33.5631 21.7529C33.0846 22.371 32.3946 22.7693 31.6201 22.8747C29.6124 23.1477 28.0196 24.7405 27.7466 26.7482C27.6413 27.5227 27.2429 28.2127 26.6249 28.6912C25.0226 29.9314 24.4396 32.1073 25.207 33.9825C25.5031 34.7058 25.5031 35.5027 25.207 36.226C24.4396 38.1012 25.0226 40.2771 26.6249 41.5173C27.2429 41.9958 27.6413 42.6858 27.7466 43.4602C27.9035 44.6142 28.497 45.6305 29.3541 46.3385L24.3098 55.0756C24.1518 55.3493 24.1741 55.6912 24.3666 55.9419C24.5589 56.1925 24.8833 56.3028 25.1887 56.221L29.5856 55.0428L30.7586 59.4208C30.8404 59.7261 31.0981 59.952 31.4114 59.9932C31.4456 59.9977 31.4798 59.9999 31.5136 59.9999C31.79 59.9999 32.0493 59.853 32.19 59.6092L37.6332 50.1815C38.0459 50.137 38.4569 50.036 38.8543 49.8733C39.5777 49.5772 40.3746 49.5772 41.0978 49.8733C41.5122 50.0429 41.9413 50.1463 42.3717 50.1876L47.8113 59.6092C47.9521 59.8531 48.2113 59.9999 48.4877 59.9999C48.5217 59.9999 48.5557 59.9977 48.59 59.9932C48.9034 59.952 49.161 59.7261 49.2428 59.4208L50.4159 55.0428L54.8128 56.221C55.1178 56.3028 55.4425 56.1927 55.6349 55.9419C55.8272 55.6912 55.8496 55.3493 55.6917 55.0756ZM31.7798 57.1943L30.8927 53.8837C30.839 53.6835 30.7082 53.5128 30.5287 53.4092C30.3492 53.3056 30.136 53.2776 29.9358 53.3312L26.6063 54.2233L30.7118 47.1123C31.0021 47.2161 31.306 47.291 31.62 47.3338C32.3945 47.4391 33.0845 47.8374 33.563 48.4555C34.1702 49.2399 35.0018 49.7795 35.9125 50.0364L31.7798 57.1943ZM38.2624 48.4271C37.0349 48.9295 35.6106 48.5478 34.7987 47.499C34.0678 46.5548 33.0137 45.9461 31.8305 45.7853C30.5163 45.6066 29.4736 44.564 29.295 43.2497C29.1341 42.0666 28.5255 41.0125 27.5813 40.2815C26.5324 39.4697 26.1508 38.0453 26.6532 36.8179C27.1055 35.7128 27.1055 34.4956 26.6532 33.3906C26.1508 32.1631 26.5324 30.7387 27.5813 29.9269C28.5255 29.196 29.1341 28.1419 29.295 26.9587C29.4737 25.6445 30.5163 24.6018 31.8305 24.4231C33.0137 24.2623 34.0678 23.6537 34.7987 22.7095C35.3713 21.9698 36.2482 21.562 37.1462 21.562C37.5215 21.562 37.9005 21.6333 38.2623 21.7814C39.3675 22.2336 40.5847 22.2336 41.6897 21.7814C42.9171 21.2789 44.3415 21.6606 45.1533 22.7095C45.8842 23.6537 46.9383 24.2623 48.1214 24.4231C49.4355 24.6018 50.4783 25.6445 50.657 26.9587C50.8179 28.1419 51.4265 29.196 52.3707 29.9269C53.4195 30.7387 53.8011 32.163 53.2988 33.3906C52.8465 34.4956 52.8465 35.7128 53.2988 36.8179C53.8011 38.0453 53.4194 39.4697 52.3707 40.2815C51.4265 41.0124 50.8179 42.0665 50.657 43.2496C50.4783 44.5639 49.4355 45.6066 48.1214 45.7853C46.9382 45.9461 45.8841 46.5547 45.1533 47.499C44.3413 48.5479 42.9171 48.9294 41.6897 48.427C40.5846 47.9748 39.3675 47.9748 38.2624 48.4271ZM50.0656 53.3312C49.6486 53.2194 49.2204 53.4669 49.1086 53.8837L48.2215 57.1943L44.0818 50.024C44.9759 49.7624 45.7913 49.2278 46.3892 48.4555C46.8676 47.8374 47.5576 47.439 48.332 47.3338C48.6607 47.2891 48.9781 47.2084 49.2806 47.0969L53.395 54.2233L50.0656 53.3312Z" fill="white"/>
<path d="M36.4256 32.2139L33.9945 34.6449C33.848 34.7914 33.7656 34.9902 33.7656 35.1974C33.7656 35.4046 33.848 35.6034 33.9945 35.7499L38.554 40.3095C38.7005 40.456 38.8993 40.5384 39.1065 40.5384C39.3137 40.5384 39.5125 40.456 39.659 40.3095L46.0076 33.9609C46.3128 33.6558 46.3128 33.161 46.0076 32.8559L43.5766 30.4248C43.4301 30.2783 43.2314 30.1959 43.0241 30.1959C42.8169 30.1959 42.6181 30.2783 42.4716 30.4248L39.1066 33.7899L37.5307 32.214C37.3842 32.0675 37.1854 31.9851 36.9782 31.9851C36.7708 31.985 36.5721 32.0674 36.4256 32.2139ZM38.5539 35.4474C38.7004 35.5939 38.8992 35.6763 39.1064 35.6763C39.3137 35.6763 39.5124 35.5939 39.6589 35.4474L43.024 32.0823L44.35 33.4084L39.1064 38.652L35.652 35.1975L36.9781 33.8715L38.5539 35.4474Z" fill="white"/>
<path d="M50.1593 35.3672C50.1593 33.2916 49.5372 31.2953 48.3605 29.5943C47.2113 27.9333 45.6151 26.6632 43.7443 25.9214C43.343 25.7624 42.889 25.9586 42.7299 26.3597C42.5708 26.7609 42.7671 27.215 43.1682 27.3741C46.4658 28.6817 48.5966 31.8192 48.5966 35.3672C48.5966 40.1065 44.7409 43.9622 40.0015 43.9622C35.2622 43.9622 31.4065 40.1065 31.4065 35.3672C31.4065 31.8191 33.5373 28.6816 36.8349 27.374C37.236 27.2149 37.4323 26.7608 37.2732 26.3596C37.1142 25.9585 36.6599 25.7622 36.2589 25.9213C34.388 26.6632 32.7918 27.9332 31.6426 29.5942C30.4658 31.2952 29.8438 33.2915 29.8438 35.3671C29.8438 40.9681 34.4005 45.5249 40.0015 45.5249C45.6026 45.525 50.1593 40.9682 50.1593 35.3672Z" fill="white"/>
<path d="M40.0001 26.7718C40.2056 26.7718 40.4072 26.689 40.5525 26.5429C40.6978 26.3975 40.7815 26.1967 40.7815 25.9904C40.7815 25.7849 40.6979 25.5834 40.5525 25.438C40.4072 25.2927 40.2056 25.2091 40.0001 25.2091C39.7946 25.2091 39.593 25.2927 39.4477 25.438C39.3024 25.5834 39.2188 25.7849 39.2188 25.9904C39.2188 26.1967 39.3024 26.3975 39.4477 26.5429C39.593 26.689 39.7946 26.7718 40.0001 26.7718Z" fill="white"/>
</g>
<defs>
<clipPath id="clip0_293_23449">
<rect width="40" height="40" fill="white" transform="translate(20 20)"/>
</clipPath>
</defs>
</svg>
