<svg width="80" height="80" viewBox="0 0 80 80" fill="none" xmlns="http://www.w3.org/2000/svg">
<rect width="80" height="80" rx="40" transform="matrix(-1 0 0 1 80 0)" fill="#001830"/>
<g clip-path="url(#clip0_293_23461)">
<path d="M20.5859 23.1478H24.893L26.3242 24.5166L24.5869 26.254C23.527 27.314 23.527 29.0387 24.5869 30.0987L25.4313 30.9431L24.5696 31.8048C24.4462 31.9284 24.3842 32.1005 24.4006 32.2743C24.417 32.4482 24.5102 32.6056 24.6545 32.7038L26.0994 33.6859C26.4791 33.9442 26.9155 34.0705 27.3496 34.0705C27.853 34.0705 28.3534 33.9005 28.7587 33.5695L29.1084 33.9193C29.3622 34.173 29.6994 34.3127 30.0582 34.3127C30.417 34.3127 30.7541 34.173 31.0079 33.9192L31.802 33.125C32.0557 32.8714 32.1954 32.5341 32.1954 32.1754C32.1954 31.8166 32.0557 31.4793 31.802 31.2258L31.4602 30.884L31.7205 30.6237L32.0623 30.9655C32.316 31.2191 32.6533 31.3587 33.012 31.3587C33.3708 31.3587 33.708 31.2191 33.9617 30.9655L34.7559 30.1713C35.2795 29.6476 35.2795 28.7955 34.7559 28.2718L34.4141 27.93L34.6745 27.6697L35.0162 28.0115C35.2781 28.2733 35.622 28.4041 35.9659 28.4041C36.3098 28.4041 36.6537 28.2732 36.9156 28.0115L37.7098 27.2173C38.2334 26.6937 38.2334 25.8416 37.7098 25.3178L37.3601 24.9681C37.9766 24.2133 38.0341 23.129 37.4766 22.3088L36.4943 20.8639C36.3962 20.7195 36.2388 20.6264 36.0648 20.61C35.8923 20.5938 35.719 20.6555 35.5954 20.779L34.7337 21.6406L33.8893 20.7963C33.3758 20.2828 32.6931 20 31.967 20C31.2407 20 30.558 20.2828 30.0446 20.7963L27.153 23.6878L25.533 22.1384C25.4239 22.0341 25.2789 21.9759 25.128 21.9759H20.5859C20.2623 21.9759 20 22.2382 20 22.5619C20 22.8855 20.2623 23.1478 20.5859 23.1478ZM30.9734 32.0543C31.0148 32.0957 31.0235 32.143 31.0235 32.1753C31.0235 32.2077 31.0148 32.2549 30.9734 32.2963C30.9734 32.2963 30.9733 32.2963 30.9733 32.2964L30.1791 33.0905C30.1124 33.1574 30.0037 33.1573 29.937 33.0905L29.5952 32.7488L30.6316 31.7125L30.9734 32.0543ZM33.9273 29.1003C33.994 29.167 33.994 29.2756 33.9273 29.3424L33.133 30.1366C33.0663 30.2034 32.9577 30.2034 32.891 30.1366L32.5492 29.7948L33.5855 28.7585L33.9273 29.1003ZM36.8812 26.3884L36.087 27.1827C36.0202 27.2493 35.9116 27.2494 35.8448 27.1827L35.503 26.8409L36.5394 25.8046L36.8812 26.1463C36.948 26.213 36.948 26.3218 36.8812 26.3884ZM35.9233 22.1083L36.5075 22.9676C36.7916 23.3855 36.7384 23.9483 36.3811 24.3056C35.4264 25.2603 28.9569 31.7298 28.0963 32.5904C27.7391 32.9478 27.1762 33.0009 26.7582 32.7168L25.899 32.1327C28.1294 29.9023 34.657 23.3747 35.9233 22.1083ZM30.8733 21.6249C31.1654 21.3328 31.5538 21.1719 31.967 21.1719C32.3801 21.1719 32.7685 21.3328 33.0606 21.625L33.905 22.4693L26.26 30.1144L25.4156 29.2699C24.8125 28.6669 24.8125 27.6856 25.4156 27.0826L30.8733 21.6249Z" fill="white"/>
<path d="M44.8281 25.0666H43.4668C43.1431 25.0666 42.8809 25.3288 42.8809 25.6525C42.8809 25.9762 43.1431 26.2384 43.4668 26.2384H44.8281C45.1518 26.2384 45.4141 25.9762 45.4141 25.6525C45.4141 25.3288 45.1518 25.0666 44.8281 25.0666Z" fill="white"/>
<path d="M44.8281 27.2185H43.4668C43.1431 27.2185 42.8809 27.4808 42.8809 27.8045C42.8809 28.1281 43.1431 28.3904 43.4668 28.3904H44.8281C45.1518 28.3904 45.4141 28.1281 45.4141 27.8045C45.4141 27.4808 45.1518 27.2185 44.8281 27.2185Z" fill="white"/>
<path d="M44.8281 29.3705H43.4668C43.1431 29.3705 42.8809 29.6328 42.8809 29.9565C42.8809 30.2802 43.1431 30.5424 43.4668 30.5424H44.8281C45.1518 30.5424 45.4141 30.2802 45.4141 29.9565C45.4141 29.6328 45.1518 29.3705 44.8281 29.3705Z" fill="white"/>
<path d="M44.8281 31.5226H43.4668C43.1431 31.5226 42.8809 31.7848 42.8809 32.1085C42.8809 32.4322 43.1431 32.6945 43.4668 32.6945H44.8281C45.1518 32.6945 45.4141 32.4322 45.4141 32.1085C45.4141 31.7848 45.1518 31.5226 44.8281 31.5226Z" fill="white"/>
<path d="M53.3616 29.1117C53.2106 28.9474 52.9798 28.8831 52.7656 28.9458C52.5516 29.0084 52.3916 29.187 52.353 29.4066L52.0469 31.1459L50.5631 27.9037C50.4773 27.7163 50.2995 27.5877 50.0946 27.5651C49.8898 27.5427 49.688 27.6292 49.5635 27.7934L48.3673 29.3706H46.9434C46.6197 29.3706 46.3574 29.6329 46.3574 29.9566C46.3574 30.2802 46.6197 30.5425 46.9434 30.5425H48.6583C48.8416 30.5425 49.0144 30.4566 49.1252 30.3106L49.9052 29.2822L51.7648 33.3457C51.8609 33.556 52.0705 33.6878 52.2973 33.6878C52.322 33.6878 52.347 33.6862 52.372 33.683C52.6265 33.6504 52.8301 33.4561 52.8746 33.2034L53.3013 30.7785L53.5241 31.021C53.653 31.1612 53.842 31.2304 54.0309 31.2056C54.2198 31.1812 54.3851 31.0664 54.4739 30.8979L55.0628 29.7812L55.0879 30.0182C55.1194 30.3162 55.3708 30.5424 55.6705 30.5424H56.852C57.1756 30.5424 57.4379 30.2802 57.4379 29.9565C57.4379 29.6328 57.1756 29.3705 56.852 29.3705H56.1977L56.0254 27.7428C55.9982 27.4863 55.8066 27.2777 55.5534 27.2291C55.2998 27.1805 55.0447 27.303 54.9245 27.5312L53.8249 29.6162L53.3616 29.1117Z" fill="white"/>
<path d="M57.8312 41.4738H38.4472C38.1235 41.4738 37.8612 41.7361 37.8612 42.0598C37.8612 42.3834 38.1235 42.6457 38.4472 42.6457H57.8312C58.3809 42.6457 58.8281 43.0929 58.8281 43.6426V44.5741H21.1719V43.6426C21.1719 43.0929 21.6191 42.6457 22.1688 42.6457H36.1045C36.4281 42.6457 36.6904 42.3834 36.6904 42.0598C36.6904 41.7361 36.4281 41.4738 36.1045 41.4738H28.2293V40.7004C28.2293 39.8399 27.5293 39.1399 26.6688 39.1399H23.5872C22.7267 39.1399 22.0267 39.8399 22.0267 40.7004V41.4784C20.8968 41.5518 20 42.4945 20 43.6426V45.16C20 45.4837 20.2623 45.7459 20.5859 45.7459H22.5758V46.3641C22.5758 47.4523 23.4611 48.3377 24.5494 48.3377H27.9421C28.2658 48.3377 28.528 48.0755 28.528 47.7518C28.528 47.4281 28.2658 47.1659 27.9421 47.1659H24.5493C24.1073 47.1659 23.7476 46.8062 23.7476 46.3641V45.7459H56.2524V46.3641C56.2524 46.8062 55.8927 47.1659 55.4506 47.1659C52.799 47.1659 33.5091 47.1659 30.2848 47.1659C29.9611 47.1659 29.6988 47.4281 29.6988 47.7518C29.6988 48.0755 29.9611 48.3377 30.2848 48.3377H34.5745L37.0357 49.899L34.5401 50.8291C34.3108 50.9145 34.1587 51.1334 34.1587 51.378V53.1166H29.2212C28.3863 53.1166 27.7072 53.7958 27.7072 54.6306V56.2911C26.945 56.5387 26.3925 57.2557 26.3925 58.0994C26.3925 59.1474 27.2451 60 28.2931 60C29.3412 60 30.1938 59.1474 30.1938 58.0994C30.1938 57.2557 29.6412 56.5387 28.8791 56.2911V54.6306C28.8791 54.442 29.0325 54.2885 29.2212 54.2885H49.5783C49.7669 54.2885 49.9204 54.442 49.9204 54.6306V56.2911C49.1582 56.5387 48.6057 57.2557 48.6057 58.0994C48.6057 59.1474 49.4583 60 50.5063 60C51.5544 60 52.407 59.1474 52.407 58.0994C52.407 57.2557 51.8545 56.5387 51.0923 56.2911V54.6306C51.0923 53.7958 50.4131 53.1166 49.5783 53.1166H44.2957L39.6555 50.1731L44.5803 48.3377H55.4505C56.5388 48.3377 57.4242 47.4523 57.4242 46.364V45.7459H59.4141C59.7377 45.7459 60 45.4836 60 45.1599V43.6425C60 42.4467 59.0271 41.4738 57.8312 41.4738ZM23.1986 40.7004C23.1986 40.4862 23.3729 40.3118 23.5872 40.3118H26.6688C26.883 40.3118 27.0574 40.4861 27.0574 40.7004V41.4738H23.1986V40.7004ZM28.2931 58.8281C27.8913 58.8281 27.5644 58.5012 27.5644 58.0994C27.5644 57.6995 27.888 57.3739 28.2871 57.3707C28.2891 57.3707 28.2911 57.3708 28.2931 57.3708C28.2952 57.3708 28.2972 57.3707 28.2991 57.3707C28.6983 57.374 29.022 57.6995 29.022 58.0994C29.022 58.5012 28.6951 58.8281 28.2931 58.8281ZM50.5063 58.8281C50.1045 58.8281 49.7776 58.5012 49.7776 58.0994C49.7776 57.6995 50.1012 57.3739 50.5003 57.3707C50.5023 57.3707 50.5043 57.3708 50.5063 57.3708C50.5084 57.3708 50.5104 57.3707 50.5123 57.3707C50.9115 57.374 51.2352 57.6995 51.2352 58.0994C51.2352 58.5012 50.9083 58.8281 50.5063 58.8281ZM42.1081 53.1167H35.3307V51.7851L38.2776 50.6868L42.1081 53.1167ZM38.4138 49.3854L36.7623 48.3377H41.225L38.4138 49.3854Z" fill="white"/>
<path d="M58.5669 22.9487H55.6788C55.3552 22.9487 55.0929 23.2109 55.0929 23.5346C55.0929 23.8583 55.3552 24.1205 55.6788 24.1205H58.5669C58.711 24.1205 58.8283 24.2378 58.8283 24.382V35.1558C58.8283 35.3 58.711 35.4173 58.5669 35.4173H41.9705C41.8263 35.4173 41.709 35.3 41.709 35.1558V24.382C41.709 24.2378 41.8263 24.1205 41.9705 24.1205H53.3361C53.6598 24.1205 53.922 23.8583 53.922 23.5346C53.922 23.2109 53.6598 22.9487 53.3361 22.9487H41.9705C41.1802 22.9487 40.5371 23.5916 40.5371 24.382V35.1558C40.5371 35.9461 41.1801 36.5891 41.9705 36.5891H58.567C59.3573 36.5891 60.0002 35.9462 60.0002 35.1558V24.382C60.0002 23.5916 59.3573 22.9487 58.5669 22.9487Z" fill="white"/>
</g>
<defs>
<clipPath id="clip0_293_23461">
<rect width="40" height="40" fill="white" transform="translate(20 20)"/>
</clipPath>
</defs>
</svg>
