<svg width="80" height="80" viewBox="0 0 80 80" fill="none" xmlns="http://www.w3.org/2000/svg">
<path d="M54.0082 37.6247C54.0026 37.6247 53.9973 37.6247 53.9917 37.6247H47.2921V30.9086C47.3012 29.5541 46.2105 28.4486 44.8559 28.4395C44.8504 28.4395 44.8448 28.4395 44.8395 28.4395H35.1605C33.8059 28.4395 32.7078 29.5377 32.7078 30.8922V37.6082H26.0082C24.6537 37.5992 23.5481 38.6897 23.5391 40.0442C23.5391 40.0554 23.5391 40.0663 23.5391 40.0774V49.7399C23.5391 51.0944 24.6372 52.1926 25.9917 52.1926H32.7078V58.8922C32.6987 60.2467 33.7895 61.3523 35.144 61.3613C35.1496 61.3613 35.1551 61.3613 35.1605 61.3613H44.823C46.1775 61.3613 47.2757 60.2632 47.2757 58.9086V52.1926H53.9917C55.3463 52.2017 56.4518 51.1109 56.4609 49.7564C56.4609 49.7508 56.4609 49.7453 56.4609 49.7399V40.0774C56.4609 38.7228 55.3629 37.6247 54.0082 37.6247ZM53.1687 48.9004H45.6461C44.737 48.9004 44 49.6375 44 50.5465V58.0691H36V50.5465C36 49.6375 35.2629 48.9004 34.3539 48.9004H26.8312V40.9169H34.3539C35.2629 40.9169 36 40.1798 36 39.2708V31.7317H43.9835V39.2543C43.9835 40.1634 44.7205 40.9004 45.6296 40.9004H53.1687V48.9004Z" fill="white"/>
<path d="M68.642 16.1268H55.0782V10.3325C55.1636 7.68848 53.0893 5.47572 50.4453 5.39033C50.3105 5.38601 50.1757 5.38725 50.0412 5.39424H29.9589C27.3169 5.25659 25.0636 7.28663 24.9257 9.9284C24.9187 10.063 24.9173 10.1977 24.9218 10.3325V16.0938H11.358C6.12346 16.0938 0 19.0733 0 27.4519V63.2543C0 71.6329 6.12346 74.6124 11.358 74.6124H68.642C73.8765 74.6124 80 71.6329 80 63.2543V27.4848C80 19.1062 73.893 16.1268 68.642 16.1268ZM28.214 10.3325C28.214 9.85515 28.214 8.5712 29.9753 8.5712H50.0412C51.8025 8.5712 51.8025 9.83869 51.8025 10.3325V16.0938H28.214V10.3325ZM76.7078 63.2543C76.7078 70.53 71.0782 71.3202 68.642 71.3202H11.358C8.93827 71.3202 3.29218 70.53 3.29218 63.2543V27.4848C3.29218 20.2091 8.92181 19.4189 11.358 19.4189H68.642C71.0617 19.4189 76.7078 20.2091 76.7078 27.4848V63.2543Z" fill="white"/>
</svg>
