<svg width="80" height="80" viewBox="0 0 80 80" fill="none" xmlns="http://www.w3.org/2000/svg">
<rect width="80" height="80" rx="40" fill="#001830"/>
<path d="M52.9938 55C49.8337 55 46.5938 54.2087 43.2738 52.6262C39.9538 51.0437 36.8694 48.8219 34.0206 45.9606C31.1719 43.0994 28.9562 40.015 27.3737 36.7075C25.7912 33.4 25 30.1663 25 27.0063C25 26.4338 25.1875 25.9569 25.5625 25.5756C25.9375 25.1944 26.4063 25.0025 26.9688 25H31.6056C32.1156 25 32.5606 25.1606 32.9406 25.4819C33.3206 25.8031 33.5775 26.215 33.7113 26.7175L34.6413 31.1875C34.7288 31.7125 34.7131 32.1706 34.5944 32.5619C34.4756 32.9531 34.2675 33.2737 33.97 33.5237L29.8563 37.36C30.6263 38.7563 31.4769 40.0538 32.4081 41.2525C33.3394 42.4513 34.3331 43.5869 35.3894 44.6594C36.4769 45.7469 37.6481 46.7594 38.9031 47.6969C40.1581 48.6331 41.5356 49.5169 43.0356 50.3481L47.0463 46.2663C47.3513 45.9375 47.6944 45.7206 48.0756 45.6156C48.4556 45.5119 48.8769 45.4912 49.3394 45.5537L53.2825 46.36C53.7925 46.485 54.2063 46.7419 54.5238 47.1306C54.8413 47.5194 55 47.9644 55 48.4656V53.0313C55 53.5938 54.8088 54.0625 54.4263 54.4375C54.0438 54.8125 53.565 55 52.9938 55ZM28.975 35.6013L32.575 32.2919C32.6937 32.1956 32.7712 32.0631 32.8075 31.8944C32.845 31.7256 32.8388 31.5694 32.7888 31.4256L31.9581 27.4506C31.9094 27.2594 31.825 27.1156 31.705 27.0194C31.585 26.9231 31.4294 26.875 31.2381 26.875H27.3906C27.2469 26.875 27.1269 26.9231 27.0306 27.0194C26.9344 27.1156 26.8863 27.2356 26.8863 27.3794C26.9225 28.6606 27.1231 29.9981 27.4881 31.3919C27.8531 32.7856 28.3475 34.1888 28.975 35.6013ZM44.8206 51.2275C46.0881 51.855 47.4381 52.3194 48.8706 52.6206C50.3056 52.9206 51.5556 53.0813 52.6206 53.1025C52.7644 53.1025 52.8844 53.0544 52.9806 52.9581C53.0769 52.8619 53.125 52.7425 53.125 52.6V48.835C53.125 48.6437 53.0769 48.4875 52.9806 48.3662C52.8844 48.2463 52.7406 48.1625 52.5494 48.115L49.0806 47.4044C48.9356 47.3556 48.8087 47.3494 48.7 47.3856C48.5925 47.4231 48.4788 47.5012 48.3587 47.62L44.8206 51.2275Z" fill="white"/>
</svg>
