<svg width="80" height="80" viewBox="0 0 80 80" fill="none" xmlns="http://www.w3.org/2000/svg">
<rect width="80" height="80" rx="40" transform="matrix(-1 0 0 1 80 0)" fill="#001830"/>
<path d="M52.3067 51.3333C53.0744 51.3333 53.715 51.0767 54.2283 50.5633C54.7417 50.05 54.9989 49.4089 55 48.64V30.6933C55 29.9256 54.7428 29.285 54.2283 28.7717C53.7139 28.2583 53.0739 28.0011 52.3083 28H27.6917C26.925 28 26.285 28.2572 25.7717 28.7717C25.2583 29.2861 25.0011 29.9267 25 30.6933V48.6417C25 49.4083 25.2572 50.0489 25.7717 50.5633C26.2861 51.0778 26.9261 51.3344 27.6917 51.3333H52.3067ZM40 39.86L53.3333 31.1417V48.6417C53.3333 48.9406 53.2372 49.1861 53.045 49.3783C52.8528 49.5706 52.6067 49.6667 52.3067 49.6667H27.6917C27.3928 49.6667 27.1472 49.5706 26.955 49.3783C26.7628 49.1861 26.6667 48.94 26.6667 48.64V31.14L40 39.86ZM40 38L27.18 29.6667H52.82L40 38ZM53.3333 31.1417V29.6667V48.6417C53.3333 48.9406 53.2372 49.1861 53.045 49.3783C52.8528 49.5706 52.6067 49.6667 52.3067 49.6667H53.3333V31.1417Z" fill="white"/>
</svg>
