<svg width="80" height="80" viewBox="0 0 80 80" fill="none" xmlns="http://www.w3.org/2000/svg">
<rect width="80" height="80" rx="40" transform="matrix(-1 0 0 1 80 0)" fill="#001830"/>
<path d="M38.88 57.641C39.2064 57.8755 39.5981 58.0016 40 58.0016C40.4019 58.0016 40.7936 57.8755 41.12 57.641C50.7783 50.7568 61.0286 36.5964 50.6663 26.3641C47.8215 23.5657 43.9904 21.9982 40 22C35.9999 22 32.1618 23.57 29.3337 26.3621C18.9714 36.5944 29.2217 50.7528 38.88 57.641Z" stroke="white" stroke-width="2" stroke-linecap="round" stroke-linejoin="round"/>
<path d="M39.9999 40.0005C38.939 40.0005 37.9215 39.579 37.1714 38.8289C36.4212 38.0787 35.9998 37.0613 35.9998 36.0004C35.9998 34.9395 36.4212 33.922 37.1714 33.1719C37.9215 32.4217 38.939 32.0002 39.9999 32.0002C41.0608 32.0002 42.0782 32.4217 42.8284 33.1719C43.5786 33.922 44 34.9395 44 36.0004C44 37.0613 43.5786 38.0787 42.8284 38.8289C42.0782 39.579 41.0608 40.0005 39.9999 40.0005Z" stroke="white" stroke-width="2" stroke-linecap="round" stroke-linejoin="round"/>
</svg>
