<svg width="80" height="80" viewBox="0 0 80 80" fill="none" xmlns="http://www.w3.org/2000/svg">
<g clip-path="url(#clip0_293_23629)">
<path d="M80 45.1613C80 43.0271 78.2632 41.2903 76.129 41.2903C75.6194 41.2903 75.1355 41.3948 74.689 41.5742C74.2439 39.929 72.7523 38.7097 70.9677 38.7097C69.9729 38.7097 69.0735 39.0981 68.3871 39.7161C67.7006 39.0968 66.8013 38.7097 65.8064 38.7097C65.3523 38.7097 64.9213 38.8026 64.5161 38.9471V33.0852C72.0529 31.3148 77.4193 24.631 77.4193 16.7742C77.4193 7.52516 69.8942 0 60.6452 0C55.6413 0 51.1561 2.21419 48.08 5.69935C46.9355 3.8271 44.8813 2.58065 42.5806 2.58065H6.45161C2.89419 2.58065 0 5.47484 0 9.03226V70.9677C0 74.5252 2.89419 77.4193 6.45161 77.4193H42.5806C46.1381 77.4193 49.0323 74.5252 49.0323 70.9677V28.8929C51.1381 30.911 53.7845 32.3832 56.7742 33.0865V42.009C56.0116 41.5639 55.1381 41.2903 54.1935 41.2903C52.7703 41.2903 51.6129 42.4477 51.6129 43.871V53.8813C51.6129 57.5458 52.9768 60.9935 55.4426 63.6761L54.0813 80H77.5316L76.1703 63.6761C78.6361 60.9935 80 57.5458 80 53.8813V45.1613ZM42.5806 74.8387H6.45161C4.31742 74.8387 2.58065 73.1019 2.58065 70.9677V9.03226C2.58065 6.89806 4.31742 5.16129 6.45161 5.16129H42.5806C44.3613 5.16129 45.8942 6.4 46.32 8.09161C44.7768 10.6284 43.871 13.5935 43.871 16.7742C43.871 20.0529 44.8168 23.12 46.4516 25.7213V70.9677C46.4516 73.1019 44.7148 74.8387 42.5806 74.8387ZM46.4516 16.7742C46.4516 8.94839 52.8194 2.58065 60.6452 2.58065C68.471 2.58065 74.8387 8.94839 74.8387 16.7742C74.8387 23.3626 70.3819 28.9794 64.0955 30.5394C63.4594 29.2697 62.16 28.3871 60.6452 28.3871C59.1303 28.3871 57.831 29.2697 57.1948 30.5394C50.9084 28.9806 46.4516 23.3626 46.4516 16.7742ZM56.8865 77.4193L57.9613 64.5161H73.6516L74.7264 77.4193H56.8865ZM77.4193 53.8813C77.4193 56.8955 76.2968 59.7303 74.2697 61.9355H57.3432C55.3161 59.7303 54.1935 56.8955 54.1935 53.8813V43.871C55.6168 43.871 56.7742 45.0284 56.7742 46.4516V49.0323H59.3548V46.4516V32.2581C59.3548 31.5458 59.9342 30.9677 60.6452 30.9677C61.3561 30.9677 61.9355 31.5458 61.9355 32.2581V42.5806V43.871V49.0323H64.5161V43.871V42.5806C64.5161 41.8684 65.0955 41.2903 65.8064 41.2903C66.5174 41.2903 67.0968 41.8684 67.0968 42.5806V43.871V49.0323H69.6774V43.871V42.5806C69.6774 41.8684 70.2568 41.2903 70.9677 41.2903C71.6787 41.2903 72.2581 41.8684 72.2581 42.5806V45.1613V46.4516V49.0323H74.8387V46.4516V45.1613C74.8387 44.449 75.4181 43.871 76.129 43.871C76.84 43.871 77.4193 44.449 77.4193 45.1613V53.8813Z" fill="white"/>
<path d="M56.7746 23.2258C56.7746 24.649 57.932 25.8065 59.3552 25.8065H61.9359C63.3591 25.8065 64.5165 24.649 64.5165 23.2258V20.6452H67.0972C68.5204 20.6452 69.6778 19.4877 69.6778 18.0645V15.4839C69.6778 14.0607 68.5204 12.9032 67.0972 12.9032H64.5165V10.3226C64.5165 8.89936 63.3591 7.74194 61.9359 7.74194H59.3552C57.932 7.74194 56.7746 8.89936 56.7746 10.3226V12.9032H54.1939C52.7707 12.9032 51.6133 14.0607 51.6133 15.4839V18.0645C51.6133 19.4877 52.7707 20.6452 54.1939 20.6452H56.7746V23.2258ZM54.1939 18.0645V15.4839H59.3552V10.3226H61.9359V15.4839H67.0972V18.0645H61.9359V23.2258H59.3552V18.0645H54.1939Z" fill="white"/>
<path d="M28.387 64.5161H20.6451C19.2219 64.5161 18.0645 65.6735 18.0645 67.0968V69.6774C18.0645 71.1006 19.2219 72.258 20.6451 72.258H28.387C29.8103 72.258 30.9677 71.1006 30.9677 69.6774V67.0968C30.9677 65.6735 29.8103 64.5161 28.387 64.5161ZM20.6451 69.6774V67.0968H28.387L28.3883 69.6774H20.6451Z" fill="white"/>
<path d="M41.2911 7.74194H7.74275C6.31953 7.74194 5.16211 8.89936 5.16211 10.3226V59.3548C5.16211 60.7781 6.31953 61.9355 7.74275 61.9355H41.2911C42.7144 61.9355 43.8718 60.7781 43.8718 59.3548V16.7742V10.3226C43.8718 8.89936 42.7144 7.74194 41.2911 7.74194ZM12.904 27.2129C12.904 22.169 17.0086 18.0645 22.0524 18.0645H26.3157C29.1221 18.0645 31.8537 17.3639 34.2963 16.0284C35.4976 18.6839 36.1299 21.6026 36.1299 24.5161C36.1299 26.5948 35.7776 28.6658 35.1569 30.6529C34.5647 29.9807 33.7428 29.5084 32.806 29.3742L19.1957 27.4297C18.5505 27.3381 18.0653 26.7768 18.0653 26.1265C18.0653 25.6245 18.344 25.1742 18.7918 24.9497L19.9311 24.3807L18.7776 22.0723L17.6369 22.6413C16.3105 23.3071 15.4847 24.6426 15.4847 26.1265C15.4847 26.4852 15.5492 26.8284 15.6421 27.1613L14.6279 27.8374C13.9828 28.2671 13.5182 28.8826 13.2279 29.5755C13.0215 28.8052 12.904 28.0103 12.904 27.2129ZM15.4847 38.7097V33.5484H20.646V38.7097H15.4847ZM15.4963 30.9677C15.5247 30.5716 15.726 30.2077 16.0602 29.9845L17.1208 29.2774C17.6176 29.6361 18.1931 29.8929 18.8305 29.9845L25.7105 30.9677H15.4963ZM28.3879 33.5484H33.5492V38.7097H28.3879V33.5484ZM20.646 41.2903C22.0692 41.2903 23.2266 40.1329 23.2266 38.7097V33.5484H25.8073V38.7097C25.8073 40.1329 26.9647 41.2903 28.3879 41.2903H31.8911C30.784 44.3497 27.8782 46.4516 24.5169 46.4516C21.1557 46.4516 18.2499 44.3497 17.1428 41.2903H20.646ZM25.0099 51.6129H24.024L22.6511 48.8658C23.2576 48.9755 23.8808 49.0323 24.5169 49.0323C25.1531 49.0323 25.7763 48.9755 26.3828 48.8658L25.0099 51.6129ZM24.3195 54.1936H24.7144L25.575 59.3548H23.4589L24.3195 54.1936ZM27.1492 53.1058L29.3505 48.7019C32.1828 50.9935 34.0344 54.2903 34.4924 57.9484L34.6679 59.3548H28.1905L27.1492 53.1058ZM19.6808 48.6968L21.8847 53.1058L20.8434 59.3548H14.366L14.5415 57.9484C14.9995 54.2839 16.846 50.9884 19.6808 48.6968ZM37.2692 59.3548L37.0537 57.6284C36.5157 53.3277 34.3505 49.4465 31.0331 46.7394C32.7802 45.3342 34.0757 43.3626 34.6486 41.0361C35.5208 40.6219 36.1299 39.7381 36.1299 38.7097V35.1432L36.2653 34.871C37.8653 31.6723 38.7105 28.0916 38.7105 24.5161C38.7105 20.9407 37.8653 17.36 36.2653 14.1613L35.3402 12.3097L34.1247 13.12C31.8034 14.6658 29.104 15.4839 26.3169 15.4839H22.0524C15.5853 15.4839 10.3234 20.7458 10.3234 27.2129C10.3234 29.0245 10.7518 30.8387 11.5608 32.4581L12.904 35.1432V38.7097C12.904 39.7368 13.5118 40.6181 14.3815 41.0336C14.9337 43.3523 16.2318 45.3329 17.9969 46.7458C14.6808 49.4529 12.5182 53.3239 11.9802 57.6284L11.7647 59.3548H7.74275V10.3226H41.2911L41.2924 59.3548H37.2692Z" fill="white"/>
</g>
<defs>
<clipPath id="clip0_293_23629">
<rect width="80" height="80" fill="white"/>
</clipPath>
</defs>
</svg>
