<svg width="19" height="18" viewBox="0 0 19 18" fill="none" xmlns="http://www.w3.org/2000/svg">
<path d="M15.6708 15.3372H13.0038V11.1604C13.0038 10.1644 12.986 8.88221 11.6167 8.88221C10.2276 8.88221 10.0151 9.96739 10.0151 11.0879V15.3369H7.348V6.74767H9.90836V7.92148H9.94421C10.2004 7.48337 10.5707 7.12295 11.0156 6.87862C11.4604 6.63429 11.9632 6.5152 12.4704 6.53402C15.1736 6.53402 15.672 8.31211 15.672 10.6253L15.6708 15.3372ZM4.3387 5.57358C4.03259 5.57363 3.73334 5.48291 3.47879 5.31289C3.22423 5.14286 3.02583 4.90117 2.90864 4.61837C2.79144 4.33558 2.76073 4.02438 2.8204 3.72413C2.88006 3.42388 3.02742 3.14807 3.24383 2.93157C3.46025 2.71507 3.736 2.56761 4.03622 2.50784C4.33643 2.44806 4.64763 2.47866 4.93045 2.59575C5.21328 2.71285 5.45504 2.91119 5.62515 3.16569C5.79526 3.42018 5.88609 3.71941 5.88614 4.02553C5.88618 4.22879 5.84618 4.43006 5.76843 4.61786C5.69069 4.80566 5.57672 4.9763 5.43303 5.12005C5.28934 5.2638 5.11873 5.37784 4.93096 5.45566C4.7432 5.53347 4.54195 5.57354 4.3387 5.57358ZM5.67222 15.3372H3.00241V6.74767H5.67222V15.3372ZM17.0005 0.00122637H1.66223C1.31409 -0.00270246 0.978623 0.131748 0.729564 0.375032C0.480506 0.618316 0.338233 0.95053 0.333984 1.29867V16.7011C0.338088 17.0494 0.480277 17.3818 0.729327 17.6254C0.978377 17.8689 1.31392 18.0036 1.66223 17.9999H17.0005C17.3495 18.0043 17.6859 17.8699 17.936 17.6264C18.186 17.3829 18.3292 17.0501 18.334 16.7011V1.29756C18.329 0.948728 18.1858 0.616136 17.9357 0.372858C17.6857 0.12958 17.3493 -0.00448607 17.0005 0.000114616" fill="#001830"/>
</svg>
