<svg width="80" height="80" viewBox="0 0 80 80" fill="none" xmlns="http://www.w3.org/2000/svg">
<path d="M57.1875 61.875C56.325 61.875 55.625 62.575 55.625 63.4375C55.625 64.3 56.325 65 57.1875 65C58.05 65 58.75 64.3 58.75 63.4375C58.75 62.575 58.05 61.875 57.1875 61.875Z" fill="white"/>
<path d="M61.0347 56.8223L53.6081 54.3473L50.942 49.015C53.3439 46.5703 55.0116 43.3356 55.5739 39.9617L55.9064 37.9688H58.75C61.3347 37.9688 63.4375 35.8659 63.4375 33.2812V23.4375C63.4375 10.5141 52.9234 0 40 0C27.0434 0 16.5625 10.4839 16.5625 23.4375V33.2812C16.5625 35.3181 17.8689 37.055 19.6875 37.7V39.5312C19.6875 42.1159 21.7903 44.2188 24.375 44.2188H25.7472C26.4245 45.6902 27.3013 47.053 28.3681 48.2772C28.5894 48.5316 28.8202 48.7781 29.0566 49.018L26.3919 54.3473L18.9652 56.8225C10.33 59.7019 4.0625 68.7923 4.0625 78.4375C4.0625 79.3005 4.76203 80 5.625 80H74.375C75.2378 80 75.9375 79.3005 75.9375 78.4375C75.9375 68.7923 69.6702 59.7019 61.0347 56.8223ZM60.3125 33.2812C60.3125 34.1428 59.6116 34.8438 58.75 34.8438H56.3653C56.7625 31.7672 57.0272 28.4933 57.1336 25.2687C57.1367 25.1778 57.1392 25.0894 57.142 25H60.3125V33.2812ZM21.25 34.8438C20.3884 34.8438 19.6875 34.1428 19.6875 33.2812V25H22.8591C22.8642 25.163 22.8697 25.3267 22.8758 25.4916C22.8759 25.4972 22.8762 25.5027 22.8764 25.5083C22.8764 25.5088 22.8764 25.5092 22.8764 25.5097C22.9858 28.6459 23.247 31.8348 23.6352 34.8436H21.25V34.8438ZM24.375 41.0938C23.5134 41.0938 22.8125 40.3928 22.8125 39.5312V37.9688H24.0934L24.4259 39.9623C24.4894 40.3413 24.5673 40.7188 24.6575 41.0938H24.375ZM22.8152 21.875H19.7469C20.5383 11.403 29.2777 3.125 40 3.125C50.6747 3.125 59.4525 11.4019 60.253 21.875H57.185C57.0725 13.2458 50.0455 6.25 41.3986 6.25H38.6017C29.955 6.25 22.9275 13.2458 22.8152 21.875ZM38.6016 9.375H41.3984C48.3998 9.375 54.0666 15.1017 54.0625 22.0953C54.0625 22.587 54.0586 23.0152 54.0503 23.4047C54.0503 23.4097 54.0502 23.4148 54.0502 23.42L52.0958 23.1408C46.7864 22.3827 41.7733 19.8761 37.9798 16.0827C37.6867 15.7897 37.2894 15.625 36.875 15.625C32.6787 15.625 28.6619 17.5369 26.0066 20.7669C26.6609 14.4045 32.0395 9.375 38.6016 9.375ZM27.8969 41.0938C27.1147 38.4917 26.2197 30.8355 26.0219 25.9292L28.1248 23.1252C30.0562 20.5508 33.0611 18.9513 36.2575 18.7677C40.4633 22.7702 45.9042 25.4133 51.6539 26.2342L53.9542 26.563C53.8005 29.8263 53.4863 33.1009 53.0361 36.1127C53.0359 36.1136 53.0358 36.1147 53.0356 36.1158C52.8925 37.0841 52.7797 37.7072 52.4916 39.4477C51.6641 44.4109 47.9606 48.8992 43.0717 50.1216C41.0597 50.6239 38.94 50.6238 36.9291 50.1216C33.8764 49.3584 31.0773 47.2463 29.2709 44.2188H32.4562C33.1012 46.0373 34.838 47.3438 36.875 47.3438H40C42.5898 47.3438 44.6875 45.2463 44.6875 42.6562C44.6875 40.0716 42.5847 37.9688 40 37.9688H36.875C34.7927 37.9688 33.0816 39.3138 32.4536 41.0938H27.8969ZM36.7436 53.2837C37.8153 53.5095 38.908 53.625 40 53.625C40.8548 53.625 41.7098 53.5534 42.5552 53.4147L39.7942 56.3345L36.7436 53.2837ZM37.6461 58.6061L32.6902 63.847C31.3258 61.2355 30.1534 58.5175 29.1919 55.735L31.053 52.0128L37.6461 58.6061ZM48.6822 51.4834L50.8078 55.7348C49.8447 58.522 48.672 61.2409 47.3091 63.8494L42.0047 58.545L48.6822 51.4834ZM35.3125 42.6562C35.3125 41.7936 36.0122 41.0938 36.875 41.0938H40C40.8616 41.0938 41.5625 41.7947 41.5625 42.6562C41.5625 43.5191 40.8627 44.2188 40 44.2188H36.875C36.0134 44.2188 35.3125 43.5178 35.3125 42.6562ZM7.25 76.875C7.86922 69.1345 13.0206 62.0989 19.9534 59.787L26.5306 57.5952C27.7356 60.9272 29.2284 64.1658 30.978 67.242C30.9809 67.2473 30.9838 67.2527 30.9867 67.2578L30.9869 67.2581C32.2652 69.5064 33.7039 71.7034 35.2638 73.7892L37.1859 76.875H7.25ZM40 75.4822L37.8809 72.0802C37.8572 72.042 37.8319 72.005 37.805 71.9691C36.5397 70.2812 35.3594 68.5161 34.2844 66.7094L39.8567 60.8166L45.7283 66.6881C44.6461 68.508 43.4617 70.2805 42.1953 71.9688C42.1187 72.0708 42.2273 71.91 40 75.4822ZM42.8141 76.875L44.7361 73.7894C46.3028 71.6956 47.7519 69.4809 49.043 67.2063C49.0508 67.1925 49.0581 67.1784 49.0659 67.1647C49.0669 67.163 49.0678 67.1614 49.0688 67.1597C50.7961 64.1128 52.2733 60.9023 53.4694 57.5952L60.0464 59.787C66.9794 62.0989 72.1308 69.1345 72.75 76.875H42.8141Z" fill="white"/>
<path d="M68.0538 70.5518C67.0096 68.4617 65.48 66.6048 63.6305 65.182C62.9465 64.6556 61.9655 64.7835 61.4394 65.4676C60.9132 66.1517 61.0411 67.1326 61.725 67.6588C63.2022 68.7952 64.4238 70.2785 65.258 71.9484C65.6444 72.7217 66.5835 73.0329 67.3541 72.6479C68.126 72.2623 68.4393 71.3238 68.0538 70.5518Z" fill="white"/>
</svg>
