<svg width="22" height="24" viewBox="0 0 22 24" fill="none" xmlns="http://www.w3.org/2000/svg">
<path d="M16.2793 6.46999C15.2832 5.82168 14.5648 4.78392 14.3404 3.57482C14.2921 3.31365 14.2652 3.0446 14.2652 2.76953H11.0867L11.0816 15.4894C11.0283 16.9138 9.85409 18.0571 8.41508 18.0571C7.96756 18.0571 7.54648 17.9455 7.17549 17.7506C6.32497 17.3037 5.74297 16.4137 5.74297 15.3893C5.74297 13.9181 6.94176 12.7211 8.41462 12.7211C8.68962 12.7211 8.95349 12.7665 9.20298 12.8443V9.6041C8.94468 9.56891 8.6822 9.54714 8.41462 9.54714C5.1888 9.54714 2.56445 12.1677 2.56445 15.3893C2.56445 17.3658 3.55316 19.1148 5.06219 20.1725C6.01241 20.8388 7.16853 21.2311 8.41508 21.2311C11.6409 21.2311 14.2652 18.6105 14.2652 15.3893V8.93912C15.5118 9.8324 17.0394 10.3589 18.6875 10.3589V7.18498C17.7999 7.18498 16.9731 6.92149 16.2793 6.46999Z" fill="white"/>
</svg>
