<svg width="22" height="24" viewBox="0 0 22 24" fill="none" xmlns="http://www.w3.org/2000/svg">
<path d="M16.2793 6.46974C15.2832 5.82144 14.5648 4.78368 14.3404 3.57458C14.2921 3.3134 14.2652 3.04436 14.2652 2.76929H11.0867L11.0816 15.4891C11.0283 16.9135 9.85409 18.0569 8.41508 18.0569C7.96756 18.0569 7.54648 17.9453 7.17549 17.7503C6.32497 17.3035 5.74297 16.4134 5.74297 15.3891C5.74297 13.9179 6.94176 12.7208 8.41462 12.7208C8.68962 12.7208 8.95349 12.7662 9.20298 12.844V9.60386C8.94468 9.56866 8.6822 9.5469 8.41462 9.5469C5.1888 9.5469 2.56445 12.1675 2.56445 15.3891C2.56445 17.3655 3.55316 19.1146 5.06219 20.1722C6.01241 20.8386 7.16853 21.2308 8.41508 21.2308C11.6409 21.2308 14.2652 18.6103 14.2652 15.3891V8.93888C15.5118 9.83216 17.0394 10.3587 18.6875 10.3587V7.18474C17.7999 7.18474 16.9731 6.92125 16.2793 6.46974Z" fill="white"/>
</svg>
