<svg width="25" height="18" viewBox="0 0 25 18" fill="none" xmlns="http://www.w3.org/2000/svg">
<g clip-path="url(#clip0_4162_544)">
<path d="M9.87944 12.5562V5.44378L16.1522 9.00017L9.87944 12.5562ZM23.8324 3.20582C23.5564 2.17003 22.7432 1.35438 21.7106 1.07756C19.839 0.574474 12.334 0.574474 12.334 0.574474C12.334 0.574474 4.82898 0.574474 2.95733 1.07756C1.92475 1.35438 1.11147 2.17003 0.835493 3.20582C0.333984 5.08313 0.333984 9.00001 0.333984 9.00001C0.333984 9.00001 0.333984 12.9168 0.835493 14.7942C1.11147 15.83 1.92475 16.6456 2.95733 16.9226C4.82898 17.4255 12.334 17.4255 12.334 17.4255C12.334 17.4255 19.839 17.4255 21.7106 16.9226C22.7432 16.6456 23.5564 15.83 23.8324 14.7942C24.334 12.9168 24.334 9.00001 24.334 9.00001C24.334 9.00001 24.334 5.08313 23.8324 3.20582Z" fill="white"/>
</g>
<defs>
<clipPath id="clip0_4162_544">
<rect width="24" height="16.8511" fill="white" transform="translate(0.333984 0.574463)"/>
</clipPath>
</defs>
</svg>
