<svg width="27" height="20" viewBox="0 0 27 20" fill="none" xmlns="http://www.w3.org/2000/svg">
<g clip-path="url(#clip0_293_23400)">
<path d="M10.6749 13.8525V6.14739L17.4703 10.0001L10.6749 13.8525ZM25.7906 3.72293C25.4916 2.60082 24.6106 1.71721 23.492 1.41732C21.4644 0.872307 13.334 0.872307 13.334 0.872307C13.334 0.872307 5.20356 0.872307 3.17595 1.41732C2.05731 1.71721 1.17626 2.60082 0.877285 3.72293C0.333984 5.75668 0.333984 9.99997 0.333984 9.99997C0.333984 9.99997 0.333984 14.2432 0.877285 16.277C1.17626 17.3991 2.05731 18.2827 3.17595 18.5827C5.20356 19.1276 13.334 19.1276 13.334 19.1276C13.334 19.1276 21.4644 19.1276 23.492 18.5827C24.6106 18.2827 25.4916 17.3991 25.7906 16.277C26.334 14.2432 26.334 9.99997 26.334 9.99997C26.334 9.99997 26.334 5.75668 25.7906 3.72293Z" fill="#001830"/>
</g>
<defs>
<clipPath id="clip0_293_23400">
<rect width="26" height="18.2553" fill="white" transform="translate(0.333984 0.872314)"/>
</clipPath>
</defs>
</svg>
