<svg width="25" height="18" viewBox="0 0 25 18" fill="none" xmlns="http://www.w3.org/2000/svg">
<g clip-path="url(#clip0_4162_125)">
<path d="M9.87944 12.5565V5.44402L16.1522 9.00041L9.87944 12.5565ZM23.8324 3.20607C23.5564 2.17027 22.7432 1.35462 21.7106 1.0778C19.839 0.574718 12.334 0.574718 12.334 0.574718C12.334 0.574718 4.82898 0.574718 2.95733 1.0778C1.92475 1.35462 1.11147 2.17027 0.835493 3.20607C0.333984 5.08337 0.333984 9.00025 0.333984 9.00025C0.333984 9.00025 0.333984 12.9171 0.835493 14.7944C1.11147 15.8302 1.92475 16.6459 2.95733 16.9228C4.82898 17.4258 12.334 17.4258 12.334 17.4258C12.334 17.4258 19.839 17.4258 21.7106 16.9228C22.7432 16.6459 23.5564 15.8302 23.8324 14.7944C24.334 12.9171 24.334 9.00025 24.334 9.00025C24.334 9.00025 24.334 5.08337 23.8324 3.20607Z" fill="white"/>
</g>
<defs>
<clipPath id="clip0_4162_125">
<rect width="24" height="16.8511" fill="white" transform="translate(0.333984 0.574707)"/>
</clipPath>
</defs>
</svg>
