<svg width="25" height="18" viewBox="0 0 25 18" fill="none" xmlns="http://www.w3.org/2000/svg">
<g clip-path="url(#clip0_4162_267)">
<path d="M9.87944 12.5555V5.44305L16.1522 8.99944L9.87944 12.5555ZM23.8324 3.20509C23.5564 2.16929 22.7432 1.35365 21.7106 1.07683C19.839 0.573742 12.334 0.573742 12.334 0.573742C12.334 0.573742 4.82898 0.573742 2.95733 1.07683C1.92475 1.35365 1.11147 2.16929 0.835493 3.20509C0.333984 5.08239 0.333984 8.99927 0.333984 8.99927C0.333984 8.99927 0.333984 12.9161 0.835493 14.7935C1.11147 15.8293 1.92475 16.6449 2.95733 16.9218C4.82898 17.4248 12.334 17.4248 12.334 17.4248C12.334 17.4248 19.839 17.4248 21.7106 16.9218C22.7432 16.6449 23.5564 15.8293 23.8324 14.7935C24.334 12.9161 24.334 8.99927 24.334 8.99927C24.334 8.99927 24.334 5.08239 23.8324 3.20509Z" fill="white"/>
</g>
<defs>
<clipPath id="clip0_4162_267">
<rect width="24" height="16.8511" fill="white" transform="translate(0.333984 0.574219)"/>
</clipPath>
</defs>
</svg>
