<svg width="22" height="24" viewBox="0 0 22 24" fill="none" xmlns="http://www.w3.org/2000/svg">
<path d="M16.2793 6.4695C15.2832 5.82119 14.5648 4.78343 14.3404 3.57434C14.2921 3.31316 14.2652 3.04411 14.2652 2.76904H11.0867L11.0816 15.4889C11.0283 16.9133 9.85409 18.0566 8.41508 18.0566C7.96756 18.0566 7.54648 17.945 7.17549 17.7501C6.32497 17.3032 5.74297 16.4132 5.74297 15.3888C5.74297 13.9176 6.94176 12.7206 8.41462 12.7206C8.68962 12.7206 8.95349 12.766 9.20298 12.8438V9.60361C8.94468 9.56842 8.6822 9.54666 8.41462 9.54666C5.1888 9.54666 2.56445 12.1672 2.56445 15.3888C2.56445 17.3653 3.55316 19.1143 5.06219 20.172C6.01241 20.8384 7.16853 21.2306 8.41508 21.2306C11.6409 21.2306 14.2652 18.61 14.2652 15.3888V8.93863C15.5118 9.83191 17.0394 10.3584 18.6875 10.3584V7.18449C17.7999 7.18449 16.9731 6.921 16.2793 6.4695Z" fill="white"/>
</svg>
