<svg width="24" height="26" viewBox="0 0 24 26" fill="none" xmlns="http://www.w3.org/2000/svg">
<path d="M17.8577 7.00883C16.7786 6.30649 16.0004 5.18226 15.7572 3.8724C15.705 3.58946 15.6759 3.29799 15.6759 3H12.2325L12.2269 16.7798C12.1692 18.3229 10.8971 19.5616 9.33818 19.5616C8.85337 19.5616 8.3972 19.4407 7.99529 19.2295C7.0739 18.7454 6.4434 17.7811 6.4434 16.6715C6.4434 15.0777 7.74208 13.7808 9.33768 13.7808C9.6356 13.7808 9.92146 13.83 10.1917 13.9143V10.4041C9.91191 10.366 9.62756 10.3424 9.33768 10.3424C5.84304 10.3424 3 13.1814 3 16.6715C3 18.8126 4.0711 20.7074 5.70588 21.8532C6.73529 22.5751 7.98775 23 9.33818 23C12.8328 23 15.6759 20.1611 15.6759 16.6715V9.68372C17.0263 10.6514 18.6812 11.2218 20.4667 11.2218V7.7834C19.5051 7.7834 18.6093 7.49796 17.8577 7.00883Z" fill="#001830"/>
</svg>
