<svg width="20" height="19" viewBox="0 0 20 19" fill="none" xmlns="http://www.w3.org/2000/svg">
<path d="M9.07088 0.668008C9.41462 -0.148451 10.5854 -0.14845 10.9291 0.66801L12.9579 5.4869C13.1029 5.8311 13.4306 6.06628 13.8067 6.09606L19.0727 6.51314C19.9649 6.58381 20.3267 7.6838 19.6469 8.25906L15.6348 11.6543C15.3482 11.8969 15.223 12.2774 15.3106 12.64L16.5363 17.7167C16.744 18.5768 15.7969 19.2567 15.033 18.7958L10.5245 16.0752C10.2025 15.8809 9.7975 15.8809 9.47548 16.0752L4.96699 18.7958C4.20311 19.2567 3.25596 18.5768 3.46363 17.7167L4.68942 12.64C4.77698 12.2774 4.65182 11.8969 4.36526 11.6543L0.353062 8.25906C-0.326718 7.6838 0.0350679 6.58381 0.927291 6.51314L6.19336 6.09606C6.5695 6.06628 6.89716 5.8311 7.04207 5.4869L9.07088 0.668008Z" fill="#001830"/>
</svg>
